<?xml version="1.0" encoding="utf-8" standalone="no"?>
<!DOCTYPE svg PUBLIC "-//W3C//DTD SVG 1.1//EN"
  "http://www.w3.org/Graphics/SVG/1.1/DTD/svg11.dtd">
<svg xmlns:xlink="http://www.w3.org/1999/xlink" width="1952pt" height="216pt" viewBox="0 0 1952 216" xmlns="http://www.w3.org/2000/svg" version="1.1">
 <metadata>
  <rdf:RDF xmlns:dc="http://purl.org/dc/elements/1.1/" xmlns:cc="http://creativecommons.org/ns#" xmlns:rdf="http://www.w3.org/1999/02/22-rdf-syntax-ns#">
   <cc:Work>
    <dc:type rdf:resource="http://purl.org/dc/dcmitype/StillImage"/>
    <dc:date>2024-11-10T16:40:37.725172</dc:date>
    <dc:format>image/svg+xml</dc:format>
    <dc:creator>
     <cc:Agent>
      <dc:title>Matplotlib v3.9.2, https://matplotlib.org/</dc:title>
     </cc:Agent>
    </dc:creator>
   </cc:Work>
  </rdf:RDF>
 </metadata>
 <defs>
  <style type="text/css">*{stroke-linejoin: round; stroke-linecap: butt}</style>
 </defs>
 <g id="figure_1">
  <g id="patch_1">
   <path d="M 0 216 
L 1952 216 
L 1952 0 
L 0 0 
z
" style="fill: #ffffff"/>
  </g>
  <g id="axes_1">
   <g id="patch_2">
    <path d="M 51.079342 174.04 
L 230.808174 174.04 
L 230.808174 24.72 
L 51.079342 24.72 
z
" style="fill: #ffffff"/>
   </g>
   <g id="PolyCollection_1"/>
   <g id="matplotlib.axis_1">
    <g id="xtick_1">
     <g id="line2d_1">
      <defs>
       <path id="m733b08beb6" d="M 0 0 
L 0 3.5 
" style="stroke: #000000; stroke-width: 0.8"/>
      </defs>
      <g>
       <use xlink:href="#m733b08beb6" x="59.248834" y="174.04" style="stroke: #000000; stroke-width: 0.8"/>
      </g>
     </g>
     <g id="text_1">
      <!-- 0 -->
      <g transform="translate(56.067584 188.638438) scale(0.1 -0.1)">
       <defs>
        <path id="DejaVuSans-30" d="M 2034 4250 
Q 1547 4250 1301 3770 
Q 1056 3291 1056 2328 
Q 1056 1369 1301 889 
Q 1547 409 2034 409 
Q 2525 409 2770 889 
Q 3016 1369 3016 2328 
Q 3016 3291 2770 3770 
Q 2525 4250 2034 4250 
z
M 2034 4750 
Q 2819 4750 3233 4129 
Q 3647 3509 3647 2328 
Q 3647 1150 3233 529 
Q 2819 -91 2034 -91 
Q 1250 -91 836 529 
Q 422 1150 422 2328 
Q 422 3509 836 4129 
Q 1250 4750 2034 4750 
z
" transform="scale(0.015625)"/>
       </defs>
       <use xlink:href="#DejaVuSans-30"/>
      </g>
     </g>
    </g>
    <g id="xtick_2">
     <g id="line2d_2">
      <g>
       <use xlink:href="#m733b08beb6" x="127.271252" y="174.04" style="stroke: #000000; stroke-width: 0.8"/>
      </g>
     </g>
     <g id="text_2">
      <!-- 1000 -->
      <g transform="translate(114.546252 188.638438) scale(0.1 -0.1)">
       <defs>
        <path id="DejaVuSans-31" d="M 794 531 
L 1825 531 
L 1825 4091 
L 703 3866 
L 703 4441 
L 1819 4666 
L 2450 4666 
L 2450 531 
L 3481 531 
L 3481 0 
L 794 0 
L 794 531 
z
" transform="scale(0.015625)"/>
       </defs>
       <use xlink:href="#DejaVuSans-31"/>
       <use xlink:href="#DejaVuSans-30" x="63.623047"/>
       <use xlink:href="#DejaVuSans-30" x="127.246094"/>
       <use xlink:href="#DejaVuSans-30" x="190.869141"/>
      </g>
     </g>
    </g>
    <g id="xtick_3">
     <g id="line2d_3">
      <g>
       <use xlink:href="#m733b08beb6" x="195.29367" y="174.04" style="stroke: #000000; stroke-width: 0.8"/>
      </g>
     </g>
     <g id="text_3">
      <!-- 2000 -->
      <g transform="translate(182.56867 188.638438) scale(0.1 -0.1)">
       <defs>
        <path id="DejaVuSans-32" d="M 1228 531 
L 3431 531 
L 3431 0 
L 469 0 
L 469 531 
Q 828 903 1448 1529 
Q 2069 2156 2228 2338 
Q 2531 2678 2651 2914 
Q 2772 3150 2772 3378 
Q 2772 3750 2511 3984 
Q 2250 4219 1831 4219 
Q 1534 4219 1204 4116 
Q 875 4013 500 3803 
L 500 4441 
Q 881 4594 1212 4672 
Q 1544 4750 1819 4750 
Q 2544 4750 2975 4387 
Q 3406 4025 3406 3419 
Q 3406 3131 3298 2873 
Q 3191 2616 2906 2266 
Q 2828 2175 2409 1742 
Q 1991 1309 1228 531 
z
" transform="scale(0.015625)"/>
       </defs>
       <use xlink:href="#DejaVuSans-32"/>
       <use xlink:href="#DejaVuSans-30" x="63.623047"/>
       <use xlink:href="#DejaVuSans-30" x="127.246094"/>
       <use xlink:href="#DejaVuSans-30" x="190.869141"/>
      </g>
     </g>
    </g>
    <g id="text_4">
     <!-- frame -->
     <g transform="translate(126.117195 202.316563) scale(0.1 -0.1)">
      <defs>
       <path id="DejaVuSans-66" d="M 2375 4863 
L 2375 4384 
L 1825 4384 
Q 1516 4384 1395 4259 
Q 1275 4134 1275 3809 
L 1275 3500 
L 2222 3500 
L 2222 3053 
L 1275 3053 
L 1275 0 
L 697 0 
L 697 3053 
L 147 3053 
L 147 3500 
L 697 3500 
L 697 3744 
Q 697 4328 969 4595 
Q 1241 4863 1831 4863 
L 2375 4863 
z
" transform="scale(0.015625)"/>
       <path id="DejaVuSans-72" d="M 2631 2963 
Q 2534 3019 2420 3045 
Q 2306 3072 2169 3072 
Q 1681 3072 1420 2755 
Q 1159 2438 1159 1844 
L 1159 0 
L 581 0 
L 581 3500 
L 1159 3500 
L 1159 2956 
Q 1341 3275 1631 3429 
Q 1922 3584 2338 3584 
Q 2397 3584 2469 3576 
Q 2541 3569 2628 3553 
L 2631 2963 
z
" transform="scale(0.015625)"/>
       <path id="DejaVuSans-61" d="M 2194 1759 
Q 1497 1759 1228 1600 
Q 959 1441 959 1056 
Q 959 750 1161 570 
Q 1363 391 1709 391 
Q 2188 391 2477 730 
Q 2766 1069 2766 1631 
L 2766 1759 
L 2194 1759 
z
M 3341 1997 
L 3341 0 
L 2766 0 
L 2766 531 
Q 2569 213 2275 61 
Q 1981 -91 1556 -91 
Q 1019 -91 701 211 
Q 384 513 384 1019 
Q 384 1609 779 1909 
Q 1175 2209 1959 2209 
L 2766 2209 
L 2766 2266 
Q 2766 2663 2505 2880 
Q 2244 3097 1772 3097 
Q 1472 3097 1187 3025 
Q 903 2953 641 2809 
L 641 3341 
Q 956 3463 1253 3523 
Q 1550 3584 1831 3584 
Q 2591 3584 2966 3190 
Q 3341 2797 3341 1997 
z
" transform="scale(0.015625)"/>
       <path id="DejaVuSans-6d" d="M 3328 2828 
Q 3544 3216 3844 3400 
Q 4144 3584 4550 3584 
Q 5097 3584 5394 3201 
Q 5691 2819 5691 2113 
L 5691 0 
L 5113 0 
L 5113 2094 
Q 5113 2597 4934 2840 
Q 4756 3084 4391 3084 
Q 3944 3084 3684 2787 
Q 3425 2491 3425 1978 
L 3425 0 
L 2847 0 
L 2847 2094 
Q 2847 2600 2669 2842 
Q 2491 3084 2119 3084 
Q 1678 3084 1418 2786 
Q 1159 2488 1159 1978 
L 1159 0 
L 581 0 
L 581 3500 
L 1159 3500 
L 1159 2956 
Q 1356 3278 1631 3431 
Q 1906 3584 2284 3584 
Q 2666 3584 2933 3390 
Q 3200 3197 3328 2828 
z
" transform="scale(0.015625)"/>
       <path id="DejaVuSans-65" d="M 3597 1894 
L 3597 1613 
L 953 1613 
Q 991 1019 1311 708 
Q 1631 397 2203 397 
Q 2534 397 2845 478 
Q 3156 559 3463 722 
L 3463 178 
Q 3153 47 2828 -22 
Q 2503 -91 2169 -91 
Q 1331 -91 842 396 
Q 353 884 353 1716 
Q 353 2575 817 3079 
Q 1281 3584 2069 3584 
Q 2775 3584 3186 3129 
Q 3597 2675 3597 1894 
z
M 3022 2063 
Q 3016 2534 2758 2815 
Q 2500 3097 2075 3097 
Q 1594 3097 1305 2825 
Q 1016 2553 972 2059 
L 3022 2063 
z
" transform="scale(0.015625)"/>
      </defs>
      <use xlink:href="#DejaVuSans-66"/>
      <use xlink:href="#DejaVuSans-72" x="35.205078"/>
      <use xlink:href="#DejaVuSans-61" x="76.318359"/>
      <use xlink:href="#DejaVuSans-6d" x="137.597656"/>
      <use xlink:href="#DejaVuSans-65" x="235.009766"/>
     </g>
    </g>
   </g>
   <g id="matplotlib.axis_2">
    <g id="ytick_1">
     <g id="line2d_4">
      <defs>
       <path id="ma985c8260b" d="M 0 0 
L -3.5 0 
" style="stroke: #000000; stroke-width: 0.8"/>
      </defs>
      <g>
       <use xlink:href="#ma985c8260b" x="51.079342" y="167.092874" style="stroke: #000000; stroke-width: 0.8"/>
      </g>
     </g>
     <g id="text_5">
      <!-- 0 -->
      <g transform="translate(37.716842 170.892093) scale(0.1 -0.1)">
       <use xlink:href="#DejaVuSans-30"/>
      </g>
     </g>
    </g>
    <g id="ytick_2">
     <g id="line2d_5">
      <g>
       <use xlink:href="#ma985c8260b" x="51.079342" y="142.690382" style="stroke: #000000; stroke-width: 0.8"/>
      </g>
     </g>
     <g id="text_6">
      <!-- 25 -->
      <g transform="translate(31.354342 146.489601) scale(0.1 -0.1)">
       <defs>
        <path id="DejaVuSans-35" d="M 691 4666 
L 3169 4666 
L 3169 4134 
L 1269 4134 
L 1269 2991 
Q 1406 3038 1543 3061 
Q 1681 3084 1819 3084 
Q 2600 3084 3056 2656 
Q 3513 2228 3513 1497 
Q 3513 744 3044 326 
Q 2575 -91 1722 -91 
Q 1428 -91 1123 -41 
Q 819 9 494 109 
L 494 744 
Q 775 591 1075 516 
Q 1375 441 1709 441 
Q 2250 441 2565 725 
Q 2881 1009 2881 1497 
Q 2881 1984 2565 2268 
Q 2250 2553 1709 2553 
Q 1456 2553 1204 2497 
Q 953 2441 691 2322 
L 691 4666 
z
" transform="scale(0.015625)"/>
       </defs>
       <use xlink:href="#DejaVuSans-32"/>
       <use xlink:href="#DejaVuSans-35" x="63.623047"/>
      </g>
     </g>
    </g>
    <g id="ytick_3">
     <g id="line2d_6">
      <g>
       <use xlink:href="#ma985c8260b" x="51.079342" y="118.28789" style="stroke: #000000; stroke-width: 0.8"/>
      </g>
     </g>
     <g id="text_7">
      <!-- 50 -->
      <g transform="translate(31.354342 122.087109) scale(0.1 -0.1)">
       <use xlink:href="#DejaVuSans-35"/>
       <use xlink:href="#DejaVuSans-30" x="63.623047"/>
      </g>
     </g>
    </g>
    <g id="ytick_4">
     <g id="line2d_7">
      <g>
       <use xlink:href="#ma985c8260b" x="51.079342" y="93.885398" style="stroke: #000000; stroke-width: 0.8"/>
      </g>
     </g>
     <g id="text_8">
      <!-- 75 -->
      <g transform="translate(31.354342 97.684617) scale(0.1 -0.1)">
       <defs>
        <path id="DejaVuSans-37" d="M 525 4666 
L 3525 4666 
L 3525 4397 
L 1831 0 
L 1172 0 
L 2766 4134 
L 525 4134 
L 525 4666 
z
" transform="scale(0.015625)"/>
       </defs>
       <use xlink:href="#DejaVuSans-37"/>
       <use xlink:href="#DejaVuSans-35" x="63.623047"/>
      </g>
     </g>
    </g>
    <g id="ytick_5">
     <g id="line2d_8">
      <g>
       <use xlink:href="#ma985c8260b" x="51.079342" y="69.482906" style="stroke: #000000; stroke-width: 0.8"/>
      </g>
     </g>
     <g id="text_9">
      <!-- 100 -->
      <g transform="translate(24.991842 73.282125) scale(0.1 -0.1)">
       <use xlink:href="#DejaVuSans-31"/>
       <use xlink:href="#DejaVuSans-30" x="63.623047"/>
       <use xlink:href="#DejaVuSans-30" x="127.246094"/>
      </g>
     </g>
    </g>
    <g id="ytick_6">
     <g id="line2d_9">
      <g>
       <use xlink:href="#ma985c8260b" x="51.079342" y="45.080414" style="stroke: #000000; stroke-width: 0.8"/>
      </g>
     </g>
     <g id="text_10">
      <!-- 125 -->
      <g transform="translate(24.991842 48.879633) scale(0.1 -0.1)">
       <use xlink:href="#DejaVuSans-31"/>
       <use xlink:href="#DejaVuSans-32" x="63.623047"/>
       <use xlink:href="#DejaVuSans-35" x="127.246094"/>
      </g>
     </g>
    </g>
    <g id="text_11">
     <!-- value -->
     <g transform="translate(18.912154 113.037813) rotate(-90) scale(0.1 -0.1)">
      <defs>
       <path id="DejaVuSans-76" d="M 191 3500 
L 800 3500 
L 1894 563 
L 2988 3500 
L 3597 3500 
L 2284 0 
L 1503 0 
L 191 3500 
z
" transform="scale(0.015625)"/>
       <path id="DejaVuSans-6c" d="M 603 4863 
L 1178 4863 
L 1178 0 
L 603 0 
L 603 4863 
z
" transform="scale(0.015625)"/>
       <path id="DejaVuSans-75" d="M 544 1381 
L 544 3500 
L 1119 3500 
L 1119 1403 
Q 1119 906 1312 657 
Q 1506 409 1894 409 
Q 2359 409 2629 706 
Q 2900 1003 2900 1516 
L 2900 3500 
L 3475 3500 
L 3475 0 
L 2900 0 
L 2900 538 
Q 2691 219 2414 64 
Q 2138 -91 1772 -91 
Q 1169 -91 856 284 
Q 544 659 544 1381 
z
M 1991 3584 
L 1991 3584 
z
" transform="scale(0.015625)"/>
      </defs>
      <use xlink:href="#DejaVuSans-76"/>
      <use xlink:href="#DejaVuSans-61" x="59.179688"/>
      <use xlink:href="#DejaVuSans-6c" x="120.458984"/>
      <use xlink:href="#DejaVuSans-75" x="148.242188"/>
      <use xlink:href="#DejaVuSans-65" x="211.621094"/>
     </g>
    </g>
   </g>
   <g id="line2d_10">
    <path d="M 59.248834 167.234219 
L 59.588946 167.234143 
L 59.656968 166.920161 
L 59.793013 167.234219 
L 65.642941 167.234219 
L 65.710964 167.014334 
L 65.778986 166.178213 
L 65.847008 166.369913 
L 65.983053 167.234219 
L 67.207457 167.137782 
L 67.343502 166.921894 
L 67.819659 166.949588 
L 67.955703 167.023866 
L 68.091748 167.234219 
L 68.295816 167.234219 
L 68.567905 166.612753 
L 69.044062 166.227074 
L 69.316152 166.269947 
L 69.520219 167.234219 
L 69.588241 167.234219 
L 69.928354 166.638341 
L 70.472533 166.286075 
L 70.744623 166.294913 
L 70.880667 167.234219 
L 71.288802 167.234219 
L 71.492869 165.350106 
L 71.560892 165.533339 
L 71.696936 167.234219 
L 71.901004 167.234219 
L 71.969026 164.278159 
L 72.105071 167.234219 
L 73.601564 167.234219 
L 73.669587 163.903107 
L 73.805631 167.01981 
L 74.009699 167.234219 
L 74.962012 167.226876 
L 75.16608 166.704947 
L 75.642237 165.829562 
L 75.846304 167.234219 
L 80.539851 167.234219 
L 80.675896 166.698307 
L 80.879963 167.234219 
L 81.832277 167.234219 
L 81.900299 166.318955 
L 81.968322 166.345419 
L 82.104366 167.234219 
L 86.457801 167.248104 
L 86.457801 167.248104 
" clip-path="url(#p2be4c8263f)" style="fill: none; stroke: #000000; stroke-width: 2.5; stroke-linecap: square"/>
   </g>
   <g id="patch_3">
    <path d="M 51.079342 174.04 
L 51.079342 24.72 
" style="fill: none; stroke: #000000; stroke-width: 0.8; stroke-linejoin: miter; stroke-linecap: square"/>
   </g>
   <g id="patch_4">
    <path d="M 51.079342 174.04 
L 230.808174 174.04 
" style="fill: none; stroke: #000000; stroke-width: 0.8; stroke-linejoin: miter; stroke-linecap: square"/>
   </g>
   <g id="text_12">
    <!-- evt = baseline -->
    <g transform="translate(104.636727 18.72) scale(0.1 -0.1)">
     <defs>
      <path id="DejaVuSans-74" d="M 1172 4494 
L 1172 3500 
L 2356 3500 
L 2356 3053 
L 1172 3053 
L 1172 1153 
Q 1172 725 1289 603 
Q 1406 481 1766 481 
L 2356 481 
L 2356 0 
L 1766 0 
Q 1100 0 847 248 
Q 594 497 594 1153 
L 594 3053 
L 172 3053 
L 172 3500 
L 594 3500 
L 594 4494 
L 1172 4494 
z
" transform="scale(0.015625)"/>
      <path id="DejaVuSans-20" transform="scale(0.015625)"/>
      <path id="DejaVuSans-3d" d="M 678 2906 
L 4684 2906 
L 4684 2381 
L 678 2381 
L 678 2906 
z
M 678 1631 
L 4684 1631 
L 4684 1100 
L 678 1100 
L 678 1631 
z
" transform="scale(0.015625)"/>
      <path id="DejaVuSans-62" d="M 3116 1747 
Q 3116 2381 2855 2742 
Q 2594 3103 2138 3103 
Q 1681 3103 1420 2742 
Q 1159 2381 1159 1747 
Q 1159 1113 1420 752 
Q 1681 391 2138 391 
Q 2594 391 2855 752 
Q 3116 1113 3116 1747 
z
M 1159 2969 
Q 1341 3281 1617 3432 
Q 1894 3584 2278 3584 
Q 2916 3584 3314 3078 
Q 3713 2572 3713 1747 
Q 3713 922 3314 415 
Q 2916 -91 2278 -91 
Q 1894 -91 1617 61 
Q 1341 213 1159 525 
L 1159 0 
L 581 0 
L 581 4863 
L 1159 4863 
L 1159 2969 
z
" transform="scale(0.015625)"/>
      <path id="DejaVuSans-73" d="M 2834 3397 
L 2834 2853 
Q 2591 2978 2328 3040 
Q 2066 3103 1784 3103 
Q 1356 3103 1142 2972 
Q 928 2841 928 2578 
Q 928 2378 1081 2264 
Q 1234 2150 1697 2047 
L 1894 2003 
Q 2506 1872 2764 1633 
Q 3022 1394 3022 966 
Q 3022 478 2636 193 
Q 2250 -91 1575 -91 
Q 1294 -91 989 -36 
Q 684 19 347 128 
L 347 722 
Q 666 556 975 473 
Q 1284 391 1588 391 
Q 1994 391 2212 530 
Q 2431 669 2431 922 
Q 2431 1156 2273 1281 
Q 2116 1406 1581 1522 
L 1381 1569 
Q 847 1681 609 1914 
Q 372 2147 372 2553 
Q 372 3047 722 3315 
Q 1072 3584 1716 3584 
Q 2034 3584 2315 3537 
Q 2597 3491 2834 3397 
z
" transform="scale(0.015625)"/>
      <path id="DejaVuSans-69" d="M 603 3500 
L 1178 3500 
L 1178 0 
L 603 0 
L 603 3500 
z
M 603 4863 
L 1178 4863 
L 1178 4134 
L 603 4134 
L 603 4863 
z
" transform="scale(0.015625)"/>
      <path id="DejaVuSans-6e" d="M 3513 2113 
L 3513 0 
L 2938 0 
L 2938 2094 
Q 2938 2591 2744 2837 
Q 2550 3084 2163 3084 
Q 1697 3084 1428 2787 
Q 1159 2491 1159 1978 
L 1159 0 
L 581 0 
L 581 3500 
L 1159 3500 
L 1159 2956 
Q 1366 3272 1645 3428 
Q 1925 3584 2291 3584 
Q 2894 3584 3203 3211 
Q 3513 2838 3513 2113 
z
" transform="scale(0.015625)"/>
     </defs>
     <use xlink:href="#DejaVuSans-65"/>
     <use xlink:href="#DejaVuSans-76" x="61.523438"/>
     <use xlink:href="#DejaVuSans-74" x="120.703125"/>
     <use xlink:href="#DejaVuSans-20" x="159.912109"/>
     <use xlink:href="#DejaVuSans-3d" x="191.699219"/>
     <use xlink:href="#DejaVuSans-20" x="275.488281"/>
     <use xlink:href="#DejaVuSans-62" x="307.275391"/>
     <use xlink:href="#DejaVuSans-61" x="370.751953"/>
     <use xlink:href="#DejaVuSans-73" x="432.03125"/>
     <use xlink:href="#DejaVuSans-65" x="484.130859"/>
     <use xlink:href="#DejaVuSans-6c" x="545.654297"/>
     <use xlink:href="#DejaVuSans-69" x="573.4375"/>
     <use xlink:href="#DejaVuSans-6e" x="601.220703"/>
     <use xlink:href="#DejaVuSans-65" x="664.599609"/>
    </g>
   </g>
  </g>
  <g id="axes_2">
   <g id="patch_5">
    <path d="M 255.46832 174.04 
L 435.197152 174.04 
L 435.197152 24.72 
L 255.46832 24.72 
z
" style="fill: #ffffff"/>
   </g>
   <g id="PolyCollection_2"/>
   <g id="matplotlib.axis_3">
    <g id="xtick_4">
     <g id="line2d_11">
      <g>
       <use xlink:href="#m733b08beb6" x="263.637812" y="174.04" style="stroke: #000000; stroke-width: 0.8"/>
      </g>
     </g>
     <g id="text_13">
      <!-- 0 -->
      <g transform="translate(260.456562 188.638438) scale(0.1 -0.1)">
       <use xlink:href="#DejaVuSans-30"/>
      </g>
     </g>
    </g>
    <g id="xtick_5">
     <g id="line2d_12">
      <g>
       <use xlink:href="#m733b08beb6" x="331.66023" y="174.04" style="stroke: #000000; stroke-width: 0.8"/>
      </g>
     </g>
     <g id="text_14">
      <!-- 1000 -->
      <g transform="translate(318.93523 188.638438) scale(0.1 -0.1)">
       <use xlink:href="#DejaVuSans-31"/>
       <use xlink:href="#DejaVuSans-30" x="63.623047"/>
       <use xlink:href="#DejaVuSans-30" x="127.246094"/>
       <use xlink:href="#DejaVuSans-30" x="190.869141"/>
      </g>
     </g>
    </g>
    <g id="xtick_6">
     <g id="line2d_13">
      <g>
       <use xlink:href="#m733b08beb6" x="399.682648" y="174.04" style="stroke: #000000; stroke-width: 0.8"/>
      </g>
     </g>
     <g id="text_15">
      <!-- 2000 -->
      <g transform="translate(386.957648 188.638438) scale(0.1 -0.1)">
       <use xlink:href="#DejaVuSans-32"/>
       <use xlink:href="#DejaVuSans-30" x="63.623047"/>
       <use xlink:href="#DejaVuSans-30" x="127.246094"/>
       <use xlink:href="#DejaVuSans-30" x="190.869141"/>
      </g>
     </g>
    </g>
    <g id="text_16">
     <!-- frame -->
     <g transform="translate(330.506174 202.316563) scale(0.1 -0.1)">
      <use xlink:href="#DejaVuSans-66"/>
      <use xlink:href="#DejaVuSans-72" x="35.205078"/>
      <use xlink:href="#DejaVuSans-61" x="76.318359"/>
      <use xlink:href="#DejaVuSans-6d" x="137.597656"/>
      <use xlink:href="#DejaVuSans-65" x="235.009766"/>
     </g>
    </g>
   </g>
   <g id="matplotlib.axis_4">
    <g id="ytick_7">
     <g id="line2d_14">
      <g>
       <use xlink:href="#ma985c8260b" x="255.46832" y="167.092874" style="stroke: #000000; stroke-width: 0.8"/>
      </g>
     </g>
    </g>
    <g id="ytick_8">
     <g id="line2d_15">
      <g>
       <use xlink:href="#ma985c8260b" x="255.46832" y="142.690382" style="stroke: #000000; stroke-width: 0.8"/>
      </g>
     </g>
    </g>
    <g id="ytick_9">
     <g id="line2d_16">
      <g>
       <use xlink:href="#ma985c8260b" x="255.46832" y="118.28789" style="stroke: #000000; stroke-width: 0.8"/>
      </g>
     </g>
    </g>
    <g id="ytick_10">
     <g id="line2d_17">
      <g>
       <use xlink:href="#ma985c8260b" x="255.46832" y="93.885398" style="stroke: #000000; stroke-width: 0.8"/>
      </g>
     </g>
    </g>
    <g id="ytick_11">
     <g id="line2d_18">
      <g>
       <use xlink:href="#ma985c8260b" x="255.46832" y="69.482906" style="stroke: #000000; stroke-width: 0.8"/>
      </g>
     </g>
    </g>
    <g id="ytick_12">
     <g id="line2d_19">
      <g>
       <use xlink:href="#ma985c8260b" x="255.46832" y="45.080414" style="stroke: #000000; stroke-width: 0.8"/>
      </g>
     </g>
    </g>
   </g>
   <g id="line2d_20">
    <path d="M 263.637812 167.234219 
L 267.311023 167.234211 
L 267.51509 161.837019 
L 267.719157 163.011211 
L 267.78718 162.75064 
L 267.855202 163.249755 
L 267.923225 163.147521 
L 267.991247 163.103416 
L 268.195314 162.370399 
L 268.263337 160.773798 
L 268.331359 161.194503 
L 268.807516 153.482391 
L 269.351695 144.671124 
L 269.48774 143.928382 
L 269.555763 143.889921 
L 269.623785 146.505773 
L 269.75983 167.234219 
L 269.963897 167.234219 
L 270.167964 165.964827 
L 270.372032 165.688202 
L 270.576099 167.234219 
L 278.330654 167.234219 
L 278.466699 164.676004 
L 278.602744 167.234219 
L 281.595731 167.234219 
L 281.663753 166.913462 
L 281.799798 167.234219 
L 284.180582 167.234219 
L 284.316627 166.548725 
L 284.724762 166.522754 
L 284.860807 166.561921 
L 285.064874 167.234219 
L 288.261927 167.234219 
L 288.32995 166.748874 
L 288.465995 165.331598 
L 288.534017 165.360256 
L 288.670062 167.234219 
L 289.282264 167.234219 
L 289.486331 149.820342 
L 289.690398 148.68638 
L 289.826443 149.203685 
L 289.962488 167.234219 
L 290.778757 167.229298 
L 290.778757 167.229298 
" clip-path="url(#p4b60202c6a)" style="fill: none; stroke: #000000; stroke-width: 2.5; stroke-linecap: square"/>
   </g>
   <g id="patch_6">
    <path d="M 255.46832 174.04 
L 255.46832 24.72 
" style="fill: none; stroke: #000000; stroke-width: 0.8; stroke-linejoin: miter; stroke-linecap: square"/>
   </g>
   <g id="patch_7">
    <path d="M 255.46832 174.04 
L 435.197152 174.04 
" style="fill: none; stroke: #000000; stroke-width: 0.8; stroke-linejoin: miter; stroke-linecap: square"/>
   </g>
   <g id="text_17">
    <!-- evt = tone -->
    <g transform="translate(318.70383 18.72) scale(0.1 -0.1)">
     <defs>
      <path id="DejaVuSans-6f" d="M 1959 3097 
Q 1497 3097 1228 2736 
Q 959 2375 959 1747 
Q 959 1119 1226 758 
Q 1494 397 1959 397 
Q 2419 397 2687 759 
Q 2956 1122 2956 1747 
Q 2956 2369 2687 2733 
Q 2419 3097 1959 3097 
z
M 1959 3584 
Q 2709 3584 3137 3096 
Q 3566 2609 3566 1747 
Q 3566 888 3137 398 
Q 2709 -91 1959 -91 
Q 1206 -91 779 398 
Q 353 888 353 1747 
Q 353 2609 779 3096 
Q 1206 3584 1959 3584 
z
" transform="scale(0.015625)"/>
     </defs>
     <use xlink:href="#DejaVuSans-65"/>
     <use xlink:href="#DejaVuSans-76" x="61.523438"/>
     <use xlink:href="#DejaVuSans-74" x="120.703125"/>
     <use xlink:href="#DejaVuSans-20" x="159.912109"/>
     <use xlink:href="#DejaVuSans-3d" x="191.699219"/>
     <use xlink:href="#DejaVuSans-20" x="275.488281"/>
     <use xlink:href="#DejaVuSans-74" x="307.275391"/>
     <use xlink:href="#DejaVuSans-6f" x="346.484375"/>
     <use xlink:href="#DejaVuSans-6e" x="407.666016"/>
     <use xlink:href="#DejaVuSans-65" x="471.044922"/>
    </g>
   </g>
  </g>
  <g id="axes_3">
   <g id="patch_8">
    <path d="M 459.857298 174.04 
L 639.586131 174.04 
L 639.586131 24.72 
L 459.857298 24.72 
z
" style="fill: #ffffff"/>
   </g>
   <g id="PolyCollection_3"/>
   <g id="matplotlib.axis_5">
    <g id="xtick_7">
     <g id="line2d_21">
      <g>
       <use xlink:href="#m733b08beb6" x="468.02679" y="174.04" style="stroke: #000000; stroke-width: 0.8"/>
      </g>
     </g>
     <g id="text_18">
      <!-- 0 -->
      <g transform="translate(464.84554 188.638438) scale(0.1 -0.1)">
       <use xlink:href="#DejaVuSans-30"/>
      </g>
     </g>
    </g>
    <g id="xtick_8">
     <g id="line2d_22">
      <g>
       <use xlink:href="#m733b08beb6" x="536.049208" y="174.04" style="stroke: #000000; stroke-width: 0.8"/>
      </g>
     </g>
     <g id="text_19">
      <!-- 1000 -->
      <g transform="translate(523.324208 188.638438) scale(0.1 -0.1)">
       <use xlink:href="#DejaVuSans-31"/>
       <use xlink:href="#DejaVuSans-30" x="63.623047"/>
       <use xlink:href="#DejaVuSans-30" x="127.246094"/>
       <use xlink:href="#DejaVuSans-30" x="190.869141"/>
      </g>
     </g>
    </g>
    <g id="xtick_9">
     <g id="line2d_23">
      <g>
       <use xlink:href="#m733b08beb6" x="604.071626" y="174.04" style="stroke: #000000; stroke-width: 0.8"/>
      </g>
     </g>
     <g id="text_20">
      <!-- 2000 -->
      <g transform="translate(591.346626 188.638438) scale(0.1 -0.1)">
       <use xlink:href="#DejaVuSans-32"/>
       <use xlink:href="#DejaVuSans-30" x="63.623047"/>
       <use xlink:href="#DejaVuSans-30" x="127.246094"/>
       <use xlink:href="#DejaVuSans-30" x="190.869141"/>
      </g>
     </g>
    </g>
    <g id="text_21">
     <!-- frame -->
     <g transform="translate(534.895152 202.316563) scale(0.1 -0.1)">
      <use xlink:href="#DejaVuSans-66"/>
      <use xlink:href="#DejaVuSans-72" x="35.205078"/>
      <use xlink:href="#DejaVuSans-61" x="76.318359"/>
      <use xlink:href="#DejaVuSans-6d" x="137.597656"/>
      <use xlink:href="#DejaVuSans-65" x="235.009766"/>
     </g>
    </g>
   </g>
   <g id="matplotlib.axis_6">
    <g id="ytick_13">
     <g id="line2d_24">
      <g>
       <use xlink:href="#ma985c8260b" x="459.857298" y="167.092874" style="stroke: #000000; stroke-width: 0.8"/>
      </g>
     </g>
    </g>
    <g id="ytick_14">
     <g id="line2d_25">
      <g>
       <use xlink:href="#ma985c8260b" x="459.857298" y="142.690382" style="stroke: #000000; stroke-width: 0.8"/>
      </g>
     </g>
    </g>
    <g id="ytick_15">
     <g id="line2d_26">
      <g>
       <use xlink:href="#ma985c8260b" x="459.857298" y="118.28789" style="stroke: #000000; stroke-width: 0.8"/>
      </g>
     </g>
    </g>
    <g id="ytick_16">
     <g id="line2d_27">
      <g>
       <use xlink:href="#ma985c8260b" x="459.857298" y="93.885398" style="stroke: #000000; stroke-width: 0.8"/>
      </g>
     </g>
    </g>
    <g id="ytick_17">
     <g id="line2d_28">
      <g>
       <use xlink:href="#ma985c8260b" x="459.857298" y="69.482906" style="stroke: #000000; stroke-width: 0.8"/>
      </g>
     </g>
    </g>
    <g id="ytick_18">
     <g id="line2d_29">
      <g>
       <use xlink:href="#ma985c8260b" x="459.857298" y="45.080414" style="stroke: #000000; stroke-width: 0.8"/>
      </g>
     </g>
    </g>
   </g>
   <g id="line2d_30">
    <path d="M 468.02679 167.234219 
L 469.387239 167.234219 
L 469.455261 166.647575 
L 469.591306 167.234219 
L 474.21683 167.234219 
L 474.352875 167.100995 
L 474.556943 167.234219 
L 475.713324 167.234219 
L 475.849368 166.6447 
L 475.917391 166.66557 
L 476.053436 166.716968 
L 476.121458 166.473021 
L 476.189481 166.517254 
L 476.46157 166.972517 
L 476.597615 166.989865 
L 476.73366 167.234219 
L 477.00575 167.234219 
L 477.073772 166.581176 
L 477.141794 166.743123 
L 477.277839 167.234219 
L 477.753996 167.234219 
L 477.958063 166.859015 
L 478.298176 166.631109 
L 478.502243 167.234219 
L 478.9784 167.234219 
L 479.046422 166.965727 
L 479.182467 161.798585 
L 479.250489 161.796775 
L 479.522579 160.75309 
L 479.726646 160.617658 
L 480.270826 161.182377 
L 480.40687 160.975195 
L 480.67896 159.576192 
L 481.087095 155.427269 
L 481.291162 152.855835 
L 481.427207 166.436267 
L 481.563252 166.143197 
L 481.699296 165.361855 
L 482.039409 164.944319 
L 482.311498 164.837865 
L 482.379521 165.027708 
L 482.447543 165.750534 
L 482.515565 165.710224 
L 482.719633 165.636858 
L 482.9237 167.234219 
L 491.834637 167.234219 
L 492.038704 167.065698 
L 492.446838 167.114461 
L 492.582883 167.234219 
L 495.711915 167.13835 
L 495.847959 166.19512 
L 496.188071 166.057705 
L 496.392139 167.234219 
L 496.596206 167.234211 
L 496.800273 159.333598 
L 497.072363 158.694171 
L 497.140385 158.706367 
L 497.208408 158.986544 
L 497.344453 167.234219 
L 501.969977 167.234219 
L 502.106022 161.540137 
L 502.242067 167.234219 
L 503.46647 167.234219 
L 503.73856 135.892808 
L 504.146694 113.393521 
L 504.350762 109.983249 
L 504.486806 112.030038 
L 504.554829 114.404412 
L 504.622851 122.867516 
L 504.758896 167.234219 
L 505.030986 167.227681 
L 505.099008 167.039197 
L 505.167031 167.148027 
L 505.371098 167.234219 
L 506.731546 167.234219 
L 506.799569 148.740943 
L 506.935613 88.487068 
L 507.275726 61.385148 
L 507.479793 57.962295 
L 507.615838 61.069734 
L 507.751882 67.945841 
L 507.887927 167.234219 
L 508.160017 167.170521 
L 508.364084 166.63818 
L 508.568151 166.464154 
L 508.636174 166.586478 
L 508.704196 167.234219 
L 508.772219 167.099279 
L 508.908264 166.964878 
L 509.452443 167.096235 
L 510.064645 167.234219 
L 510.608824 167.149353 
L 511.289048 166.854004 
L 511.493115 167.210603 
L 512.513452 167.234219 
L 512.717519 165.773671 
L 512.785541 165.750872 
L 512.989609 167.234219 
L 516.934909 167.234219 
L 517.070954 166.870277 
L 517.138976 166.86998 
L 517.343043 167.234219 
L 517.547111 167.234219 
L 517.615133 167.042206 
L 517.683155 165.798159 
L 517.751178 165.802508 
L 517.887223 165.862775 
L 518.023268 167.234219 
L 518.907559 167.234218 
L 518.975581 167.086385 
L 519.111626 167.234219 
L 521.560433 167.234219 
L 521.764501 166.29669 
L 522.104613 165.926263 
L 522.376702 165.623148 
L 522.444725 165.899589 
L 522.58077 167.234219 
L 524.213308 167.194408 
L 524.621442 164.93967 
L 524.757487 164.596918 
L 524.893532 165.311151 
L 525.165621 165.103266 
L 525.233644 165.097634 
L 525.505734 167.234219 
L 534.41667 167.234219 
L 534.756782 166.19133 
L 535.164917 166.457386 
L 535.300962 166.635092 
L 535.437007 164.385868 
L 535.573051 164.669406 
L 535.709096 164.563912 
L 535.913163 163.740057 
L 536.185253 161.338776 
L 536.729432 154.620589 
L 536.865477 166.585041 
L 537.001522 166.354702 
L 537.069545 166.247666 
L 537.205589 167.234219 
L 541.15089 167.234219 
L 541.422979 165.817938 
L 541.695069 165.806953 
L 541.831114 165.906567 
L 541.967159 167.234219 
L 544.892123 167.234219 
L 545.028167 165.856322 
L 545.09619 166.198718 
L 545.232235 167.234219 
L 548.361266 167.234219 
L 548.7694 125.455415 
L 549.04149 119.355399 
L 549.109513 118.991477 
L 549.177535 119.136474 
L 549.31358 120.959443 
L 549.585669 130.173734 
L 550.061826 155.489789 
L 550.265894 167.234219 
L 550.333916 167.234219 
L 550.537983 166.621832 
L 550.606006 166.646003 
L 550.810073 167.234219 
L 551.01414 167.234219 
L 551.082163 165.348937 
L 551.28623 148.335281 
L 551.626342 129.177071 
L 551.694364 130.214758 
L 551.830409 167.234219 
L 554.279216 167.234219 
L 554.415261 167.053947 
L 554.619328 167.090823 
L 554.823396 167.234219 
L 556.183844 167.147218 
L 556.387911 166.688502 
L 557.20418 165.618334 
L 557.544292 165.551468 
L 557.612315 165.570848 
L 557.952427 167.234219 
L 560.673324 167.234219 
L 560.809368 166.100322 
L 560.945413 166.165566 
L 561.081458 166.106895 
L 561.285525 165.708993 
L 561.557615 164.530659 
L 562.305862 159.681161 
L 562.373884 161.118009 
L 562.509929 167.234219 
L 574.141762 167.234219 
L 574.209785 165.927588 
L 574.34583 148.822542 
L 574.413852 146.683155 
L 574.481874 148.037622 
L 574.549897 167.201851 
L 574.617919 167.187953 
L 575.978368 167.234219 
L 578.087063 167.234219 
L 578.29113 166.537214 
L 578.563219 166.474195 
L 578.699264 167.234219 
L 580.603892 167.127812 
L 581.284116 167.135452 
L 581.420161 167.234219 
L 582.032363 167.234219 
L 582.168408 166.715898 
L 582.23643 166.883398 
L 582.372475 167.234219 
L 586.317775 167.234219 
L 586.589865 166.849163 
L 586.72591 166.8598 
L 586.929977 167.234219 
L 589.174717 167.234219 
L 589.242739 167.056681 
L 589.310762 167.185842 
L 589.514829 167.234219 
L 590.195053 167.234219 
L 590.39912 163.650664 
L 590.875277 161.43957 
L 591.079344 161.158425 
L 591.147367 161.14779 
L 591.351434 167.234219 
L 593.051994 167.124538 
L 593.528151 166.818114 
L 594.072331 166.451078 
L 594.208376 167.234219 
L 594.684533 167.234219 
L 594.752555 167.010924 
L 594.956622 167.234219 
L 595.160689 167.234219 
L 595.228712 167.034067 
L 595.364757 166.102015 
L 595.568824 166.067555 
L 595.908936 167.234219 
L 598.085653 167.234219 
L 598.153676 164.698141 
L 598.221698 151.917732 
L 598.357743 167.234219 
L 601.962931 167.234219 
L 602.098976 166.251464 
L 602.303043 167.234219 
L 603.799537 167.148951 
L 603.867559 166.610698 
L 604.071626 140.2636 
L 604.207671 139.832196 
L 604.343716 140.92523 
L 604.479761 143.514192 
L 604.547783 148.977293 
L 604.615806 165.934324 
L 604.683828 165.924297 
L 604.955918 166.009652 
L 605.29603 166.37011 
L 605.636142 166.868401 
L 605.772187 167.234219 
L 606.7245 167.234219 
L 606.928568 147.280456 
L 606.99659 146.977022 
L 607.064613 151.933759 
L 607.132635 166.491571 
L 607.200657 166.392875 
L 607.676814 165.896289 
L 607.812859 165.849625 
L 607.880882 166.146762 
L 608.016926 167.234219 
L 610.94189 167.234219 
L 611.077935 166.59695 
L 611.145958 166.545244 
L 611.350025 167.234219 
L 613.866854 167.234219 
L 614.070922 166.756378 
L 614.479056 166.697883 
L 614.615101 167.234219 
L 614.887191 167.234219 
L 614.955213 164.04486 
L 615.023235 148.606601 
L 615.091258 148.692474 
L 615.227303 165.873409 
L 615.295325 165.843748 
L 615.567415 165.93197 
L 615.635437 165.985675 
L 615.771482 167.234219 
L 616.587751 167.234219 
L 616.723796 166.137288 
L 616.995886 166.442514 
L 617.199953 167.234219 
L 618.492379 167.234219 
L 618.696446 165.977474 
L 618.900513 165.544637 
L 618.968536 166.007201 
L 619.104581 167.234219 
L 619.988872 167.234219 
L 620.260962 45.536048 
L 620.533051 31.507273 
L 620.601074 31.603135 
L 620.873163 167.234219 
L 621.145253 167.234219 
L 621.213275 166.839083 
L 621.34932 167.234219 
L 621.62141 167.234219 
L 621.8935 164.63194 
L 622.165589 164.321968 
L 622.437679 164.617319 
L 623.049881 166.171761 
L 623.185926 167.234219 
L 626.11089 167.234219 
L 626.314957 164.063391 
L 626.451002 163.994503 
L 626.587047 164.202883 
L 626.791114 165.072186 
L 626.927159 167.234219 
L 628.151562 167.234219 
L 628.219585 166.620382 
L 628.423652 161.827169 
L 629.035854 154.89591 
L 629.307943 153.618686 
L 629.443988 153.427321 
L 629.51201 156.923517 
L 629.648055 167.234219 
L 631.416638 167.244062 
L 631.416638 167.244062 
" clip-path="url(#pe4af420323)" style="fill: none; stroke: #000000; stroke-width: 2.5; stroke-linecap: square"/>
   </g>
   <g id="patch_9">
    <path d="M 459.857298 174.04 
L 459.857298 24.72 
" style="fill: none; stroke: #000000; stroke-width: 0.8; stroke-linejoin: miter; stroke-linecap: square"/>
   </g>
   <g id="patch_10">
    <path d="M 459.857298 174.04 
L 639.586131 174.04 
" style="fill: none; stroke: #000000; stroke-width: 0.8; stroke-linejoin: miter; stroke-linecap: square"/>
   </g>
   <g id="text_22">
    <!-- evt = trace -->
    <g transform="translate(521.452183 18.72) scale(0.1 -0.1)">
     <defs>
      <path id="DejaVuSans-63" d="M 3122 3366 
L 3122 2828 
Q 2878 2963 2633 3030 
Q 2388 3097 2138 3097 
Q 1578 3097 1268 2742 
Q 959 2388 959 1747 
Q 959 1106 1268 751 
Q 1578 397 2138 397 
Q 2388 397 2633 464 
Q 2878 531 3122 666 
L 3122 134 
Q 2881 22 2623 -34 
Q 2366 -91 2075 -91 
Q 1284 -91 818 406 
Q 353 903 353 1747 
Q 353 2603 823 3093 
Q 1294 3584 2113 3584 
Q 2378 3584 2631 3529 
Q 2884 3475 3122 3366 
z
" transform="scale(0.015625)"/>
     </defs>
     <use xlink:href="#DejaVuSans-65"/>
     <use xlink:href="#DejaVuSans-76" x="61.523438"/>
     <use xlink:href="#DejaVuSans-74" x="120.703125"/>
     <use xlink:href="#DejaVuSans-20" x="159.912109"/>
     <use xlink:href="#DejaVuSans-3d" x="191.699219"/>
     <use xlink:href="#DejaVuSans-20" x="275.488281"/>
     <use xlink:href="#DejaVuSans-74" x="307.275391"/>
     <use xlink:href="#DejaVuSans-72" x="346.484375"/>
     <use xlink:href="#DejaVuSans-61" x="387.597656"/>
     <use xlink:href="#DejaVuSans-63" x="448.876953"/>
     <use xlink:href="#DejaVuSans-65" x="503.857422"/>
    </g>
   </g>
  </g>
  <g id="axes_4">
   <g id="patch_11">
    <path d="M 664.246276 174.04 
L 843.975109 174.04 
L 843.975109 24.72 
L 664.246276 24.72 
z
" style="fill: #ffffff"/>
   </g>
   <g id="PolyCollection_4"/>
   <g id="matplotlib.axis_7">
    <g id="xtick_10">
     <g id="line2d_31">
      <g>
       <use xlink:href="#m733b08beb6" x="672.415769" y="174.04" style="stroke: #000000; stroke-width: 0.8"/>
      </g>
     </g>
     <g id="text_23">
      <!-- 0 -->
      <g transform="translate(669.234519 188.638438) scale(0.1 -0.1)">
       <use xlink:href="#DejaVuSans-30"/>
      </g>
     </g>
    </g>
    <g id="xtick_11">
     <g id="line2d_32">
      <g>
       <use xlink:href="#m733b08beb6" x="740.438187" y="174.04" style="stroke: #000000; stroke-width: 0.8"/>
      </g>
     </g>
     <g id="text_24">
      <!-- 1000 -->
      <g transform="translate(727.713187 188.638438) scale(0.1 -0.1)">
       <use xlink:href="#DejaVuSans-31"/>
       <use xlink:href="#DejaVuSans-30" x="63.623047"/>
       <use xlink:href="#DejaVuSans-30" x="127.246094"/>
       <use xlink:href="#DejaVuSans-30" x="190.869141"/>
      </g>
     </g>
    </g>
    <g id="xtick_12">
     <g id="line2d_33">
      <g>
       <use xlink:href="#m733b08beb6" x="808.460604" y="174.04" style="stroke: #000000; stroke-width: 0.8"/>
      </g>
     </g>
     <g id="text_25">
      <!-- 2000 -->
      <g transform="translate(795.735604 188.638438) scale(0.1 -0.1)">
       <use xlink:href="#DejaVuSans-32"/>
       <use xlink:href="#DejaVuSans-30" x="63.623047"/>
       <use xlink:href="#DejaVuSans-30" x="127.246094"/>
       <use xlink:href="#DejaVuSans-30" x="190.869141"/>
      </g>
     </g>
    </g>
    <g id="text_26">
     <!-- frame -->
     <g transform="translate(739.28413 202.316563) scale(0.1 -0.1)">
      <use xlink:href="#DejaVuSans-66"/>
      <use xlink:href="#DejaVuSans-72" x="35.205078"/>
      <use xlink:href="#DejaVuSans-61" x="76.318359"/>
      <use xlink:href="#DejaVuSans-6d" x="137.597656"/>
      <use xlink:href="#DejaVuSans-65" x="235.009766"/>
     </g>
    </g>
   </g>
   <g id="matplotlib.axis_8">
    <g id="ytick_19">
     <g id="line2d_34">
      <g>
       <use xlink:href="#ma985c8260b" x="664.246276" y="167.092874" style="stroke: #000000; stroke-width: 0.8"/>
      </g>
     </g>
    </g>
    <g id="ytick_20">
     <g id="line2d_35">
      <g>
       <use xlink:href="#ma985c8260b" x="664.246276" y="142.690382" style="stroke: #000000; stroke-width: 0.8"/>
      </g>
     </g>
    </g>
    <g id="ytick_21">
     <g id="line2d_36">
      <g>
       <use xlink:href="#ma985c8260b" x="664.246276" y="118.28789" style="stroke: #000000; stroke-width: 0.8"/>
      </g>
     </g>
    </g>
    <g id="ytick_22">
     <g id="line2d_37">
      <g>
       <use xlink:href="#ma985c8260b" x="664.246276" y="93.885398" style="stroke: #000000; stroke-width: 0.8"/>
      </g>
     </g>
    </g>
    <g id="ytick_23">
     <g id="line2d_38">
      <g>
       <use xlink:href="#ma985c8260b" x="664.246276" y="69.482906" style="stroke: #000000; stroke-width: 0.8"/>
      </g>
     </g>
    </g>
    <g id="ytick_24">
     <g id="line2d_39">
      <g>
       <use xlink:href="#ma985c8260b" x="664.246276" y="45.080414" style="stroke: #000000; stroke-width: 0.8"/>
      </g>
     </g>
    </g>
   </g>
   <g id="line2d_40">
    <path d="M 672.415769 167.148784 
L 672.483791 167.201509 
L 672.551814 167.234219 
L 672.619836 167.234219 
L 672.687858 167.234219 
L 672.755881 167.234219 
L 672.823903 167.234219 
L 672.891926 167.234219 
L 672.959948 167.234219 
L 673.02797 167.234219 
L 673.095993 167.234219 
L 673.164015 167.234219 
L 673.232038 167.234219 
L 673.30006 167.234219 
L 673.368083 167.234219 
L 673.436105 167.234219 
L 673.504127 167.234219 
L 673.57215 167.234219 
L 673.640172 167.234219 
L 673.708195 167.234219 
L 673.776217 167.234219 
L 673.844239 167.234219 
L 673.912262 167.234219 
L 673.980284 167.234219 
L 674.048307 167.234219 
L 674.116329 167.234219 
L 674.184352 167.234219 
L 674.252374 167.234219 
L 674.320396 167.234219 
L 674.388419 167.234219 
L 674.456441 167.234219 
L 674.524464 167.234219 
L 674.592486 167.197405 
L 674.660508 167.128026 
L 674.728531 167.123002 
L 674.796553 167.120533 
L 674.864576 167.120705 
L 674.932598 167.123523 
L 675.000621 167.166606 
L 675.068643 167.229298 
" clip-path="url(#p1ed10e5911)" style="fill: none; stroke: #000000; stroke-width: 2.5; stroke-linecap: square"/>
   </g>
   <g id="patch_12">
    <path d="M 664.246276 174.04 
L 664.246276 24.72 
" style="fill: none; stroke: #000000; stroke-width: 0.8; stroke-linejoin: miter; stroke-linecap: square"/>
   </g>
   <g id="patch_13">
    <path d="M 664.246276 174.04 
L 843.975109 174.04 
" style="fill: none; stroke: #000000; stroke-width: 0.8; stroke-linejoin: miter; stroke-linecap: square"/>
   </g>
   <g id="text_27">
    <!-- evt = shock -->
    <g transform="translate(724.269286 18.72) scale(0.1 -0.1)">
     <defs>
      <path id="DejaVuSans-68" d="M 3513 2113 
L 3513 0 
L 2938 0 
L 2938 2094 
Q 2938 2591 2744 2837 
Q 2550 3084 2163 3084 
Q 1697 3084 1428 2787 
Q 1159 2491 1159 1978 
L 1159 0 
L 581 0 
L 581 4863 
L 1159 4863 
L 1159 2956 
Q 1366 3272 1645 3428 
Q 1925 3584 2291 3584 
Q 2894 3584 3203 3211 
Q 3513 2838 3513 2113 
z
" transform="scale(0.015625)"/>
      <path id="DejaVuSans-6b" d="M 581 4863 
L 1159 4863 
L 1159 1991 
L 2875 3500 
L 3609 3500 
L 1753 1863 
L 3688 0 
L 2938 0 
L 1159 1709 
L 1159 0 
L 581 0 
L 581 4863 
z
" transform="scale(0.015625)"/>
     </defs>
     <use xlink:href="#DejaVuSans-65"/>
     <use xlink:href="#DejaVuSans-76" x="61.523438"/>
     <use xlink:href="#DejaVuSans-74" x="120.703125"/>
     <use xlink:href="#DejaVuSans-20" x="159.912109"/>
     <use xlink:href="#DejaVuSans-3d" x="191.699219"/>
     <use xlink:href="#DejaVuSans-20" x="275.488281"/>
     <use xlink:href="#DejaVuSans-73" x="307.275391"/>
     <use xlink:href="#DejaVuSans-68" x="359.375"/>
     <use xlink:href="#DejaVuSans-6f" x="422.753906"/>
     <use xlink:href="#DejaVuSans-63" x="483.935547"/>
     <use xlink:href="#DejaVuSans-6b" x="538.916016"/>
    </g>
   </g>
  </g>
  <g id="axes_5">
   <g id="patch_14">
    <path d="M 868.635255 174.04 
L 1048.364087 174.04 
L 1048.364087 24.72 
L 868.635255 24.72 
z
" style="fill: #ffffff"/>
   </g>
   <g id="PolyCollection_5"/>
   <g id="matplotlib.axis_9">
    <g id="xtick_13">
     <g id="line2d_41">
      <g>
       <use xlink:href="#m733b08beb6" x="876.804747" y="174.04" style="stroke: #000000; stroke-width: 0.8"/>
      </g>
     </g>
     <g id="text_28">
      <!-- 0 -->
      <g transform="translate(873.623497 188.638438) scale(0.1 -0.1)">
       <use xlink:href="#DejaVuSans-30"/>
      </g>
     </g>
    </g>
    <g id="xtick_14">
     <g id="line2d_42">
      <g>
       <use xlink:href="#m733b08beb6" x="944.827165" y="174.04" style="stroke: #000000; stroke-width: 0.8"/>
      </g>
     </g>
     <g id="text_29">
      <!-- 1000 -->
      <g transform="translate(932.102165 188.638438) scale(0.1 -0.1)">
       <use xlink:href="#DejaVuSans-31"/>
       <use xlink:href="#DejaVuSans-30" x="63.623047"/>
       <use xlink:href="#DejaVuSans-30" x="127.246094"/>
       <use xlink:href="#DejaVuSans-30" x="190.869141"/>
      </g>
     </g>
    </g>
    <g id="xtick_15">
     <g id="line2d_43">
      <g>
       <use xlink:href="#m733b08beb6" x="1012.849583" y="174.04" style="stroke: #000000; stroke-width: 0.8"/>
      </g>
     </g>
     <g id="text_30">
      <!-- 2000 -->
      <g transform="translate(1000.124583 188.638438) scale(0.1 -0.1)">
       <use xlink:href="#DejaVuSans-32"/>
       <use xlink:href="#DejaVuSans-30" x="63.623047"/>
       <use xlink:href="#DejaVuSans-30" x="127.246094"/>
       <use xlink:href="#DejaVuSans-30" x="190.869141"/>
      </g>
     </g>
    </g>
    <g id="text_31">
     <!-- frame -->
     <g transform="translate(943.673108 202.316563) scale(0.1 -0.1)">
      <use xlink:href="#DejaVuSans-66"/>
      <use xlink:href="#DejaVuSans-72" x="35.205078"/>
      <use xlink:href="#DejaVuSans-61" x="76.318359"/>
      <use xlink:href="#DejaVuSans-6d" x="137.597656"/>
      <use xlink:href="#DejaVuSans-65" x="235.009766"/>
     </g>
    </g>
   </g>
   <g id="matplotlib.axis_10">
    <g id="ytick_25">
     <g id="line2d_44">
      <g>
       <use xlink:href="#ma985c8260b" x="868.635255" y="167.092874" style="stroke: #000000; stroke-width: 0.8"/>
      </g>
     </g>
    </g>
    <g id="ytick_26">
     <g id="line2d_45">
      <g>
       <use xlink:href="#ma985c8260b" x="868.635255" y="142.690382" style="stroke: #000000; stroke-width: 0.8"/>
      </g>
     </g>
    </g>
    <g id="ytick_27">
     <g id="line2d_46">
      <g>
       <use xlink:href="#ma985c8260b" x="868.635255" y="118.28789" style="stroke: #000000; stroke-width: 0.8"/>
      </g>
     </g>
    </g>
    <g id="ytick_28">
     <g id="line2d_47">
      <g>
       <use xlink:href="#ma985c8260b" x="868.635255" y="93.885398" style="stroke: #000000; stroke-width: 0.8"/>
      </g>
     </g>
    </g>
    <g id="ytick_29">
     <g id="line2d_48">
      <g>
       <use xlink:href="#ma985c8260b" x="868.635255" y="69.482906" style="stroke: #000000; stroke-width: 0.8"/>
      </g>
     </g>
    </g>
    <g id="ytick_30">
     <g id="line2d_49">
      <g>
       <use xlink:href="#ma985c8260b" x="868.635255" y="45.080414" style="stroke: #000000; stroke-width: 0.8"/>
      </g>
     </g>
    </g>
   </g>
   <g id="line2d_50">
    <path d="M 876.804747 167.192701 
L 896.395203 167.192701 
L 896.463226 166.8826 
L 896.599271 167.192701 
L 900.81666 167.192701 
L 900.952705 161.251516 
L 901.020728 161.504538 
L 901.08875 162.397844 
L 901.224795 167.192701 
L 903.129423 167.164914 
L 903.265467 162.047719 
L 903.401512 167.192701 
L 903.945692 167.192701 
L 903.945692 167.192701 
" clip-path="url(#pc4d7d39b49)" style="fill: none; stroke: #000000; stroke-width: 2.5; stroke-linecap: square"/>
   </g>
   <g id="patch_15">
    <path d="M 868.635255 174.04 
L 868.635255 24.72 
" style="fill: none; stroke: #000000; stroke-width: 0.8; stroke-linejoin: miter; stroke-linecap: square"/>
   </g>
   <g id="patch_16">
    <path d="M 868.635255 174.04 
L 1048.364087 174.04 
" style="fill: none; stroke: #000000; stroke-width: 0.8; stroke-linejoin: miter; stroke-linecap: square"/>
   </g>
   <g id="text_32">
    <!-- evt = post-shock-1 -->
    <g transform="translate(911.070765 18.72) scale(0.1 -0.1)">
     <defs>
      <path id="DejaVuSans-70" d="M 1159 525 
L 1159 -1331 
L 581 -1331 
L 581 3500 
L 1159 3500 
L 1159 2969 
Q 1341 3281 1617 3432 
Q 1894 3584 2278 3584 
Q 2916 3584 3314 3078 
Q 3713 2572 3713 1747 
Q 3713 922 3314 415 
Q 2916 -91 2278 -91 
Q 1894 -91 1617 61 
Q 1341 213 1159 525 
z
M 3116 1747 
Q 3116 2381 2855 2742 
Q 2594 3103 2138 3103 
Q 1681 3103 1420 2742 
Q 1159 2381 1159 1747 
Q 1159 1113 1420 752 
Q 1681 391 2138 391 
Q 2594 391 2855 752 
Q 3116 1113 3116 1747 
z
" transform="scale(0.015625)"/>
      <path id="DejaVuSans-2d" d="M 313 2009 
L 1997 2009 
L 1997 1497 
L 313 1497 
L 313 2009 
z
" transform="scale(0.015625)"/>
     </defs>
     <use xlink:href="#DejaVuSans-65"/>
     <use xlink:href="#DejaVuSans-76" x="61.523438"/>
     <use xlink:href="#DejaVuSans-74" x="120.703125"/>
     <use xlink:href="#DejaVuSans-20" x="159.912109"/>
     <use xlink:href="#DejaVuSans-3d" x="191.699219"/>
     <use xlink:href="#DejaVuSans-20" x="275.488281"/>
     <use xlink:href="#DejaVuSans-70" x="307.275391"/>
     <use xlink:href="#DejaVuSans-6f" x="370.751953"/>
     <use xlink:href="#DejaVuSans-73" x="431.933594"/>
     <use xlink:href="#DejaVuSans-74" x="484.033203"/>
     <use xlink:href="#DejaVuSans-2d" x="523.242188"/>
     <use xlink:href="#DejaVuSans-73" x="559.326172"/>
     <use xlink:href="#DejaVuSans-68" x="611.425781"/>
     <use xlink:href="#DejaVuSans-6f" x="674.804688"/>
     <use xlink:href="#DejaVuSans-63" x="735.986328"/>
     <use xlink:href="#DejaVuSans-6b" x="790.966797"/>
     <use xlink:href="#DejaVuSans-2d" x="848.876953"/>
     <use xlink:href="#DejaVuSans-31" x="884.960938"/>
    </g>
   </g>
  </g>
  <g id="axes_6">
   <g id="patch_17">
    <path d="M 1073.024233 174.04 
L 1252.753065 174.04 
L 1252.753065 24.72 
L 1073.024233 24.72 
z
" style="fill: #ffffff"/>
   </g>
   <g id="PolyCollection_6"/>
   <g id="matplotlib.axis_11">
    <g id="xtick_16">
     <g id="line2d_51">
      <g>
       <use xlink:href="#m733b08beb6" x="1081.193725" y="174.04" style="stroke: #000000; stroke-width: 0.8"/>
      </g>
     </g>
     <g id="text_33">
      <!-- 0 -->
      <g transform="translate(1078.012475 188.638438) scale(0.1 -0.1)">
       <use xlink:href="#DejaVuSans-30"/>
      </g>
     </g>
    </g>
    <g id="xtick_17">
     <g id="line2d_52">
      <g>
       <use xlink:href="#m733b08beb6" x="1149.216143" y="174.04" style="stroke: #000000; stroke-width: 0.8"/>
      </g>
     </g>
     <g id="text_34">
      <!-- 1000 -->
      <g transform="translate(1136.491143 188.638438) scale(0.1 -0.1)">
       <use xlink:href="#DejaVuSans-31"/>
       <use xlink:href="#DejaVuSans-30" x="63.623047"/>
       <use xlink:href="#DejaVuSans-30" x="127.246094"/>
       <use xlink:href="#DejaVuSans-30" x="190.869141"/>
      </g>
     </g>
    </g>
    <g id="xtick_18">
     <g id="line2d_53">
      <g>
       <use xlink:href="#m733b08beb6" x="1217.238561" y="174.04" style="stroke: #000000; stroke-width: 0.8"/>
      </g>
     </g>
     <g id="text_35">
      <!-- 2000 -->
      <g transform="translate(1204.513561 188.638438) scale(0.1 -0.1)">
       <use xlink:href="#DejaVuSans-32"/>
       <use xlink:href="#DejaVuSans-30" x="63.623047"/>
       <use xlink:href="#DejaVuSans-30" x="127.246094"/>
       <use xlink:href="#DejaVuSans-30" x="190.869141"/>
      </g>
     </g>
    </g>
    <g id="text_36">
     <!-- frame -->
     <g transform="translate(1148.062087 202.316563) scale(0.1 -0.1)">
      <use xlink:href="#DejaVuSans-66"/>
      <use xlink:href="#DejaVuSans-72" x="35.205078"/>
      <use xlink:href="#DejaVuSans-61" x="76.318359"/>
      <use xlink:href="#DejaVuSans-6d" x="137.597656"/>
      <use xlink:href="#DejaVuSans-65" x="235.009766"/>
     </g>
    </g>
   </g>
   <g id="matplotlib.axis_12">
    <g id="ytick_31">
     <g id="line2d_54">
      <g>
       <use xlink:href="#ma985c8260b" x="1073.024233" y="167.092874" style="stroke: #000000; stroke-width: 0.8"/>
      </g>
     </g>
    </g>
    <g id="ytick_32">
     <g id="line2d_55">
      <g>
       <use xlink:href="#ma985c8260b" x="1073.024233" y="142.690382" style="stroke: #000000; stroke-width: 0.8"/>
      </g>
     </g>
    </g>
    <g id="ytick_33">
     <g id="line2d_56">
      <g>
       <use xlink:href="#ma985c8260b" x="1073.024233" y="118.28789" style="stroke: #000000; stroke-width: 0.8"/>
      </g>
     </g>
    </g>
    <g id="ytick_34">
     <g id="line2d_57">
      <g>
       <use xlink:href="#ma985c8260b" x="1073.024233" y="93.885398" style="stroke: #000000; stroke-width: 0.8"/>
      </g>
     </g>
    </g>
    <g id="ytick_35">
     <g id="line2d_58">
      <g>
       <use xlink:href="#ma985c8260b" x="1073.024233" y="69.482906" style="stroke: #000000; stroke-width: 0.8"/>
      </g>
     </g>
    </g>
    <g id="ytick_36">
     <g id="line2d_59">
      <g>
       <use xlink:href="#ma985c8260b" x="1073.024233" y="45.080414" style="stroke: #000000; stroke-width: 0.8"/>
      </g>
     </g>
    </g>
   </g>
   <g id="line2d_60">
    <path d="M 1081.193725 167.192701 
L 1087.859922 167.192701 
L 1087.995967 158.88226 
L 1088.132012 159.684109 
L 1088.268057 167.192701 
L 1090.920931 167.192701 
L 1090.988953 167.03178 
L 1091.124998 160.568766 
L 1091.329065 167.192701 
L 1093.98194 167.192701 
L 1094.186007 158.679244 
L 1094.254029 158.77084 
L 1094.322052 158.835281 
L 1094.526119 159.683353 
L 1095.206343 164.098643 
L 1095.342388 167.192701 
L 1108.33467 167.192701 
L 1108.33467 167.192701 
" clip-path="url(#pde1eadb494)" style="fill: none; stroke: #000000; stroke-width: 2.5; stroke-linecap: square"/>
   </g>
   <g id="patch_18">
    <path d="M 1073.024233 174.04 
L 1073.024233 24.72 
" style="fill: none; stroke: #000000; stroke-width: 0.8; stroke-linejoin: miter; stroke-linecap: square"/>
   </g>
   <g id="patch_19">
    <path d="M 1073.024233 174.04 
L 1252.753065 174.04 
" style="fill: none; stroke: #000000; stroke-width: 0.8; stroke-linejoin: miter; stroke-linecap: square"/>
   </g>
   <g id="text_37">
    <!-- evt = post-shock-2 -->
    <g transform="translate(1115.459743 18.72) scale(0.1 -0.1)">
     <use xlink:href="#DejaVuSans-65"/>
     <use xlink:href="#DejaVuSans-76" x="61.523438"/>
     <use xlink:href="#DejaVuSans-74" x="120.703125"/>
     <use xlink:href="#DejaVuSans-20" x="159.912109"/>
     <use xlink:href="#DejaVuSans-3d" x="191.699219"/>
     <use xlink:href="#DejaVuSans-20" x="275.488281"/>
     <use xlink:href="#DejaVuSans-70" x="307.275391"/>
     <use xlink:href="#DejaVuSans-6f" x="370.751953"/>
     <use xlink:href="#DejaVuSans-73" x="431.933594"/>
     <use xlink:href="#DejaVuSans-74" x="484.033203"/>
     <use xlink:href="#DejaVuSans-2d" x="523.242188"/>
     <use xlink:href="#DejaVuSans-73" x="559.326172"/>
     <use xlink:href="#DejaVuSans-68" x="611.425781"/>
     <use xlink:href="#DejaVuSans-6f" x="674.804688"/>
     <use xlink:href="#DejaVuSans-63" x="735.986328"/>
     <use xlink:href="#DejaVuSans-6b" x="790.966797"/>
     <use xlink:href="#DejaVuSans-2d" x="848.876953"/>
     <use xlink:href="#DejaVuSans-32" x="884.960938"/>
    </g>
   </g>
  </g>
  <g id="axes_7">
   <g id="patch_20">
    <path d="M 1277.413211 174.04 
L 1457.142044 174.04 
L 1457.142044 24.72 
L 1277.413211 24.72 
z
" style="fill: #ffffff"/>
   </g>
   <g id="PolyCollection_7"/>
   <g id="matplotlib.axis_13">
    <g id="xtick_19">
     <g id="line2d_61">
      <g>
       <use xlink:href="#m733b08beb6" x="1285.582703" y="174.04" style="stroke: #000000; stroke-width: 0.8"/>
      </g>
     </g>
     <g id="text_38">
      <!-- 0 -->
      <g transform="translate(1282.401453 188.638438) scale(0.1 -0.1)">
       <use xlink:href="#DejaVuSans-30"/>
      </g>
     </g>
    </g>
    <g id="xtick_20">
     <g id="line2d_62">
      <g>
       <use xlink:href="#m733b08beb6" x="1353.605121" y="174.04" style="stroke: #000000; stroke-width: 0.8"/>
      </g>
     </g>
     <g id="text_39">
      <!-- 1000 -->
      <g transform="translate(1340.880121 188.638438) scale(0.1 -0.1)">
       <use xlink:href="#DejaVuSans-31"/>
       <use xlink:href="#DejaVuSans-30" x="63.623047"/>
       <use xlink:href="#DejaVuSans-30" x="127.246094"/>
       <use xlink:href="#DejaVuSans-30" x="190.869141"/>
      </g>
     </g>
    </g>
    <g id="xtick_21">
     <g id="line2d_63">
      <g>
       <use xlink:href="#m733b08beb6" x="1421.627539" y="174.04" style="stroke: #000000; stroke-width: 0.8"/>
      </g>
     </g>
     <g id="text_40">
      <!-- 2000 -->
      <g transform="translate(1408.902539 188.638438) scale(0.1 -0.1)">
       <use xlink:href="#DejaVuSans-32"/>
       <use xlink:href="#DejaVuSans-30" x="63.623047"/>
       <use xlink:href="#DejaVuSans-30" x="127.246094"/>
       <use xlink:href="#DejaVuSans-30" x="190.869141"/>
      </g>
     </g>
    </g>
    <g id="text_41">
     <!-- frame -->
     <g transform="translate(1352.451065 202.316563) scale(0.1 -0.1)">
      <use xlink:href="#DejaVuSans-66"/>
      <use xlink:href="#DejaVuSans-72" x="35.205078"/>
      <use xlink:href="#DejaVuSans-61" x="76.318359"/>
      <use xlink:href="#DejaVuSans-6d" x="137.597656"/>
      <use xlink:href="#DejaVuSans-65" x="235.009766"/>
     </g>
    </g>
   </g>
   <g id="matplotlib.axis_14">
    <g id="ytick_37">
     <g id="line2d_64">
      <g>
       <use xlink:href="#ma985c8260b" x="1277.413211" y="167.092874" style="stroke: #000000; stroke-width: 0.8"/>
      </g>
     </g>
    </g>
    <g id="ytick_38">
     <g id="line2d_65">
      <g>
       <use xlink:href="#ma985c8260b" x="1277.413211" y="142.690382" style="stroke: #000000; stroke-width: 0.8"/>
      </g>
     </g>
    </g>
    <g id="ytick_39">
     <g id="line2d_66">
      <g>
       <use xlink:href="#ma985c8260b" x="1277.413211" y="118.28789" style="stroke: #000000; stroke-width: 0.8"/>
      </g>
     </g>
    </g>
    <g id="ytick_40">
     <g id="line2d_67">
      <g>
       <use xlink:href="#ma985c8260b" x="1277.413211" y="93.885398" style="stroke: #000000; stroke-width: 0.8"/>
      </g>
     </g>
    </g>
    <g id="ytick_41">
     <g id="line2d_68">
      <g>
       <use xlink:href="#ma985c8260b" x="1277.413211" y="69.482906" style="stroke: #000000; stroke-width: 0.8"/>
      </g>
     </g>
    </g>
    <g id="ytick_42">
     <g id="line2d_69">
      <g>
       <use xlink:href="#ma985c8260b" x="1277.413211" y="45.080414" style="stroke: #000000; stroke-width: 0.8"/>
      </g>
     </g>
    </g>
   </g>
   <g id="line2d_70">
    <path d="M 1285.582703 167.192701 
L 1287.759421 167.192701 
L 1287.827443 166.052552 
L 1287.963488 162.720554 
L 1288.03151 162.682404 
L 1288.099533 163.15776 
L 1288.235578 167.192701 
L 1291.160542 167.134974 
L 1291.228564 166.523576 
L 1291.296586 166.551558 
L 1291.432631 166.582902 
L 1291.568676 166.334863 
L 1291.772743 165.297008 
L 1292.112855 162.386277 
L 1292.589012 157.901964 
L 1292.657035 160.350256 
L 1292.79308 167.192701 
L 1311.023088 167.192699 
L 1311.09111 165.173793 
L 1311.159133 165.67212 
L 1311.295177 167.192701 
L 1312.791671 167.192701 
L 1312.791671 167.192701 
" clip-path="url(#p1b79a1fad9)" style="fill: none; stroke: #000000; stroke-width: 2.5; stroke-linecap: square"/>
   </g>
   <g id="patch_21">
    <path d="M 1277.413211 174.04 
L 1277.413211 24.72 
" style="fill: none; stroke: #000000; stroke-width: 0.8; stroke-linejoin: miter; stroke-linecap: square"/>
   </g>
   <g id="patch_22">
    <path d="M 1277.413211 174.04 
L 1457.142044 174.04 
" style="fill: none; stroke: #000000; stroke-width: 0.8; stroke-linejoin: miter; stroke-linecap: square"/>
   </g>
   <g id="text_42">
    <!-- evt = post-shock-3 -->
    <g transform="translate(1319.848721 18.72) scale(0.1 -0.1)">
     <defs>
      <path id="DejaVuSans-33" d="M 2597 2516 
Q 3050 2419 3304 2112 
Q 3559 1806 3559 1356 
Q 3559 666 3084 287 
Q 2609 -91 1734 -91 
Q 1441 -91 1130 -33 
Q 819 25 488 141 
L 488 750 
Q 750 597 1062 519 
Q 1375 441 1716 441 
Q 2309 441 2620 675 
Q 2931 909 2931 1356 
Q 2931 1769 2642 2001 
Q 2353 2234 1838 2234 
L 1294 2234 
L 1294 2753 
L 1863 2753 
Q 2328 2753 2575 2939 
Q 2822 3125 2822 3475 
Q 2822 3834 2567 4026 
Q 2313 4219 1838 4219 
Q 1578 4219 1281 4162 
Q 984 4106 628 3988 
L 628 4550 
Q 988 4650 1302 4700 
Q 1616 4750 1894 4750 
Q 2613 4750 3031 4423 
Q 3450 4097 3450 3541 
Q 3450 3153 3228 2886 
Q 3006 2619 2597 2516 
z
" transform="scale(0.015625)"/>
     </defs>
     <use xlink:href="#DejaVuSans-65"/>
     <use xlink:href="#DejaVuSans-76" x="61.523438"/>
     <use xlink:href="#DejaVuSans-74" x="120.703125"/>
     <use xlink:href="#DejaVuSans-20" x="159.912109"/>
     <use xlink:href="#DejaVuSans-3d" x="191.699219"/>
     <use xlink:href="#DejaVuSans-20" x="275.488281"/>
     <use xlink:href="#DejaVuSans-70" x="307.275391"/>
     <use xlink:href="#DejaVuSans-6f" x="370.751953"/>
     <use xlink:href="#DejaVuSans-73" x="431.933594"/>
     <use xlink:href="#DejaVuSans-74" x="484.033203"/>
     <use xlink:href="#DejaVuSans-2d" x="523.242188"/>
     <use xlink:href="#DejaVuSans-73" x="559.326172"/>
     <use xlink:href="#DejaVuSans-68" x="611.425781"/>
     <use xlink:href="#DejaVuSans-6f" x="674.804688"/>
     <use xlink:href="#DejaVuSans-63" x="735.986328"/>
     <use xlink:href="#DejaVuSans-6b" x="790.966797"/>
     <use xlink:href="#DejaVuSans-2d" x="848.876953"/>
     <use xlink:href="#DejaVuSans-33" x="884.960938"/>
    </g>
   </g>
  </g>
  <g id="axes_8">
   <g id="patch_23">
    <path d="M 1481.802189 174.04 
L 1661.531022 174.04 
L 1661.531022 24.72 
L 1481.802189 24.72 
z
" style="fill: #ffffff"/>
   </g>
   <g id="PolyCollection_8"/>
   <g id="matplotlib.axis_15">
    <g id="xtick_22">
     <g id="line2d_71">
      <g>
       <use xlink:href="#m733b08beb6" x="1489.971682" y="174.04" style="stroke: #000000; stroke-width: 0.8"/>
      </g>
     </g>
     <g id="text_43">
      <!-- 0 -->
      <g transform="translate(1486.790432 188.638438) scale(0.1 -0.1)">
       <use xlink:href="#DejaVuSans-30"/>
      </g>
     </g>
    </g>
    <g id="xtick_23">
     <g id="line2d_72">
      <g>
       <use xlink:href="#m733b08beb6" x="1557.9941" y="174.04" style="stroke: #000000; stroke-width: 0.8"/>
      </g>
     </g>
     <g id="text_44">
      <!-- 1000 -->
      <g transform="translate(1545.2691 188.638438) scale(0.1 -0.1)">
       <use xlink:href="#DejaVuSans-31"/>
       <use xlink:href="#DejaVuSans-30" x="63.623047"/>
       <use xlink:href="#DejaVuSans-30" x="127.246094"/>
       <use xlink:href="#DejaVuSans-30" x="190.869141"/>
      </g>
     </g>
    </g>
    <g id="xtick_24">
     <g id="line2d_73">
      <g>
       <use xlink:href="#m733b08beb6" x="1626.016517" y="174.04" style="stroke: #000000; stroke-width: 0.8"/>
      </g>
     </g>
     <g id="text_45">
      <!-- 2000 -->
      <g transform="translate(1613.291517 188.638438) scale(0.1 -0.1)">
       <use xlink:href="#DejaVuSans-32"/>
       <use xlink:href="#DejaVuSans-30" x="63.623047"/>
       <use xlink:href="#DejaVuSans-30" x="127.246094"/>
       <use xlink:href="#DejaVuSans-30" x="190.869141"/>
      </g>
     </g>
    </g>
    <g id="text_46">
     <!-- frame -->
     <g transform="translate(1556.840043 202.316563) scale(0.1 -0.1)">
      <use xlink:href="#DejaVuSans-66"/>
      <use xlink:href="#DejaVuSans-72" x="35.205078"/>
      <use xlink:href="#DejaVuSans-61" x="76.318359"/>
      <use xlink:href="#DejaVuSans-6d" x="137.597656"/>
      <use xlink:href="#DejaVuSans-65" x="235.009766"/>
     </g>
    </g>
   </g>
   <g id="matplotlib.axis_16">
    <g id="ytick_43">
     <g id="line2d_74">
      <g>
       <use xlink:href="#ma985c8260b" x="1481.802189" y="167.092874" style="stroke: #000000; stroke-width: 0.8"/>
      </g>
     </g>
    </g>
    <g id="ytick_44">
     <g id="line2d_75">
      <g>
       <use xlink:href="#ma985c8260b" x="1481.802189" y="142.690382" style="stroke: #000000; stroke-width: 0.8"/>
      </g>
     </g>
    </g>
    <g id="ytick_45">
     <g id="line2d_76">
      <g>
       <use xlink:href="#ma985c8260b" x="1481.802189" y="118.28789" style="stroke: #000000; stroke-width: 0.8"/>
      </g>
     </g>
    </g>
    <g id="ytick_46">
     <g id="line2d_77">
      <g>
       <use xlink:href="#ma985c8260b" x="1481.802189" y="93.885398" style="stroke: #000000; stroke-width: 0.8"/>
      </g>
     </g>
    </g>
    <g id="ytick_47">
     <g id="line2d_78">
      <g>
       <use xlink:href="#ma985c8260b" x="1481.802189" y="69.482906" style="stroke: #000000; stroke-width: 0.8"/>
      </g>
     </g>
    </g>
    <g id="ytick_48">
     <g id="line2d_79">
      <g>
       <use xlink:href="#ma985c8260b" x="1481.802189" y="45.080414" style="stroke: #000000; stroke-width: 0.8"/>
      </g>
     </g>
    </g>
   </g>
   <g id="line2d_80">
    <path d="M 1489.971682 167.192701 
L 1492.352466 167.192701 
L 1492.556534 156.205584 
L 1492.760601 155.203493 
L 1492.828623 155.23066 
L 1492.964668 155.872047 
L 1493.03269 156.484892 
L 1493.168735 167.192701 
L 1495.27743 167.192701 
L 1495.413475 156.502818 
L 1495.481497 159.09317 
L 1495.617542 167.192701 
L 1500.175044 167.192701 
L 1500.243067 165.036381 
L 1500.379112 152.319465 
L 1500.583179 167.192701 
L 1504.120345 167.192701 
L 1504.460457 153.622501 
L 1504.528479 153.602479 
L 1504.596501 153.707465 
L 1504.664524 156.200954 
L 1504.800569 167.192701 
L 1508.473779 167.192701 
L 1508.609824 154.021711 
L 1508.745869 167.192701 
L 1517.112626 167.192701 
L 1517.112626 167.192701 
" clip-path="url(#peb257a08ab)" style="fill: none; stroke: #000000; stroke-width: 2.5; stroke-linecap: square"/>
   </g>
   <g id="patch_24">
    <path d="M 1481.802189 174.04 
L 1481.802189 24.72 
" style="fill: none; stroke: #000000; stroke-width: 0.8; stroke-linejoin: miter; stroke-linecap: square"/>
   </g>
   <g id="patch_25">
    <path d="M 1481.802189 174.04 
L 1661.531022 174.04 
" style="fill: none; stroke: #000000; stroke-width: 0.8; stroke-linejoin: miter; stroke-linecap: square"/>
   </g>
   <g id="text_47">
    <!-- evt = post-shock-4 -->
    <g transform="translate(1524.237699 18.72) scale(0.1 -0.1)">
     <defs>
      <path id="DejaVuSans-34" d="M 2419 4116 
L 825 1625 
L 2419 1625 
L 2419 4116 
z
M 2253 4666 
L 3047 4666 
L 3047 1625 
L 3713 1625 
L 3713 1100 
L 3047 1100 
L 3047 0 
L 2419 0 
L 2419 1100 
L 313 1100 
L 313 1709 
L 2253 4666 
z
" transform="scale(0.015625)"/>
     </defs>
     <use xlink:href="#DejaVuSans-65"/>
     <use xlink:href="#DejaVuSans-76" x="61.523438"/>
     <use xlink:href="#DejaVuSans-74" x="120.703125"/>
     <use xlink:href="#DejaVuSans-20" x="159.912109"/>
     <use xlink:href="#DejaVuSans-3d" x="191.699219"/>
     <use xlink:href="#DejaVuSans-20" x="275.488281"/>
     <use xlink:href="#DejaVuSans-70" x="307.275391"/>
     <use xlink:href="#DejaVuSans-6f" x="370.751953"/>
     <use xlink:href="#DejaVuSans-73" x="431.933594"/>
     <use xlink:href="#DejaVuSans-74" x="484.033203"/>
     <use xlink:href="#DejaVuSans-2d" x="523.242188"/>
     <use xlink:href="#DejaVuSans-73" x="559.326172"/>
     <use xlink:href="#DejaVuSans-68" x="611.425781"/>
     <use xlink:href="#DejaVuSans-6f" x="674.804688"/>
     <use xlink:href="#DejaVuSans-63" x="735.986328"/>
     <use xlink:href="#DejaVuSans-6b" x="790.966797"/>
     <use xlink:href="#DejaVuSans-2d" x="848.876953"/>
     <use xlink:href="#DejaVuSans-34" x="884.960938"/>
    </g>
   </g>
  </g>
  <g id="axes_9">
   <g id="patch_26">
    <path d="M 1686.191167 174.04 
L 1865.92 174.04 
L 1865.92 24.72 
L 1686.191167 24.72 
z
" style="fill: #ffffff"/>
   </g>
   <g id="PolyCollection_9"/>
   <g id="matplotlib.axis_17">
    <g id="xtick_25">
     <g id="line2d_81">
      <g>
       <use xlink:href="#m733b08beb6" x="1694.36066" y="174.04" style="stroke: #000000; stroke-width: 0.8"/>
      </g>
     </g>
     <g id="text_48">
      <!-- 0 -->
      <g transform="translate(1691.17941 188.638438) scale(0.1 -0.1)">
       <use xlink:href="#DejaVuSans-30"/>
      </g>
     </g>
    </g>
    <g id="xtick_26">
     <g id="line2d_82">
      <g>
       <use xlink:href="#m733b08beb6" x="1762.383078" y="174.04" style="stroke: #000000; stroke-width: 0.8"/>
      </g>
     </g>
     <g id="text_49">
      <!-- 1000 -->
      <g transform="translate(1749.658078 188.638438) scale(0.1 -0.1)">
       <use xlink:href="#DejaVuSans-31"/>
       <use xlink:href="#DejaVuSans-30" x="63.623047"/>
       <use xlink:href="#DejaVuSans-30" x="127.246094"/>
       <use xlink:href="#DejaVuSans-30" x="190.869141"/>
      </g>
     </g>
    </g>
    <g id="xtick_27">
     <g id="line2d_83">
      <g>
       <use xlink:href="#m733b08beb6" x="1830.405496" y="174.04" style="stroke: #000000; stroke-width: 0.8"/>
      </g>
     </g>
     <g id="text_50">
      <!-- 2000 -->
      <g transform="translate(1817.680496 188.638438) scale(0.1 -0.1)">
       <use xlink:href="#DejaVuSans-32"/>
       <use xlink:href="#DejaVuSans-30" x="63.623047"/>
       <use xlink:href="#DejaVuSans-30" x="127.246094"/>
       <use xlink:href="#DejaVuSans-30" x="190.869141"/>
      </g>
     </g>
    </g>
    <g id="text_51">
     <!-- frame -->
     <g transform="translate(1761.229021 202.316563) scale(0.1 -0.1)">
      <use xlink:href="#DejaVuSans-66"/>
      <use xlink:href="#DejaVuSans-72" x="35.205078"/>
      <use xlink:href="#DejaVuSans-61" x="76.318359"/>
      <use xlink:href="#DejaVuSans-6d" x="137.597656"/>
      <use xlink:href="#DejaVuSans-65" x="235.009766"/>
     </g>
    </g>
   </g>
   <g id="matplotlib.axis_18">
    <g id="ytick_49">
     <g id="line2d_84">
      <g>
       <use xlink:href="#ma985c8260b" x="1686.191167" y="167.092874" style="stroke: #000000; stroke-width: 0.8"/>
      </g>
     </g>
    </g>
    <g id="ytick_50">
     <g id="line2d_85">
      <g>
       <use xlink:href="#ma985c8260b" x="1686.191167" y="142.690382" style="stroke: #000000; stroke-width: 0.8"/>
      </g>
     </g>
    </g>
    <g id="ytick_51">
     <g id="line2d_86">
      <g>
       <use xlink:href="#ma985c8260b" x="1686.191167" y="118.28789" style="stroke: #000000; stroke-width: 0.8"/>
      </g>
     </g>
    </g>
    <g id="ytick_52">
     <g id="line2d_87">
      <g>
       <use xlink:href="#ma985c8260b" x="1686.191167" y="93.885398" style="stroke: #000000; stroke-width: 0.8"/>
      </g>
     </g>
    </g>
    <g id="ytick_53">
     <g id="line2d_88">
      <g>
       <use xlink:href="#ma985c8260b" x="1686.191167" y="69.482906" style="stroke: #000000; stroke-width: 0.8"/>
      </g>
     </g>
    </g>
    <g id="ytick_54">
     <g id="line2d_89">
      <g>
       <use xlink:href="#ma985c8260b" x="1686.191167" y="45.080414" style="stroke: #000000; stroke-width: 0.8"/>
      </g>
     </g>
    </g>
   </g>
   <g id="line2d_90">
    <path d="M 1694.36066 167.234219 
L 1694.63275 167.234219 
L 1694.768794 166.147004 
L 1694.972862 167.234219 
L 1695.721108 167.198261 
L 1695.925175 166.987244 
L 1696.469355 166.85343 
L 1696.673422 167.234219 
L 1699.734431 167.234219 
L 1699.938498 166.06328 
L 1700.414655 165.344958 
L 1700.618722 165.248019 
L 1700.686745 165.574674 
L 1700.82279 167.234219 
L 1721.501605 167.192701 
L 1721.501605 167.192701 
" clip-path="url(#p753df69ab4)" style="fill: none; stroke: #000000; stroke-width: 2.5; stroke-linecap: square"/>
   </g>
   <g id="patch_27">
    <path d="M 1686.191167 174.04 
L 1686.191167 24.72 
" style="fill: none; stroke: #000000; stroke-width: 0.8; stroke-linejoin: miter; stroke-linecap: square"/>
   </g>
   <g id="patch_28">
    <path d="M 1686.191167 174.04 
L 1865.92 174.04 
" style="fill: none; stroke: #000000; stroke-width: 0.8; stroke-linejoin: miter; stroke-linecap: square"/>
   </g>
   <g id="text_52">
    <!-- resp = trace only -->
    <g transform="translate(1871.594264 56.1425) rotate(-270) scale(0.1 -0.1)">
     <defs>
      <path id="DejaVuSans-79" d="M 2059 -325 
Q 1816 -950 1584 -1140 
Q 1353 -1331 966 -1331 
L 506 -1331 
L 506 -850 
L 844 -850 
Q 1081 -850 1212 -737 
Q 1344 -625 1503 -206 
L 1606 56 
L 191 3500 
L 800 3500 
L 1894 763 
L 2988 3500 
L 3597 3500 
L 2059 -325 
z
" transform="scale(0.015625)"/>
     </defs>
     <use xlink:href="#DejaVuSans-72"/>
     <use xlink:href="#DejaVuSans-65" x="38.863281"/>
     <use xlink:href="#DejaVuSans-73" x="100.386719"/>
     <use xlink:href="#DejaVuSans-70" x="152.486328"/>
     <use xlink:href="#DejaVuSans-20" x="215.962891"/>
     <use xlink:href="#DejaVuSans-3d" x="247.75"/>
     <use xlink:href="#DejaVuSans-20" x="331.539062"/>
     <use xlink:href="#DejaVuSans-74" x="363.326172"/>
     <use xlink:href="#DejaVuSans-72" x="402.535156"/>
     <use xlink:href="#DejaVuSans-61" x="443.648438"/>
     <use xlink:href="#DejaVuSans-63" x="504.927734"/>
     <use xlink:href="#DejaVuSans-65" x="559.908203"/>
     <use xlink:href="#DejaVuSans-20" x="621.431641"/>
     <use xlink:href="#DejaVuSans-6f" x="653.21875"/>
     <use xlink:href="#DejaVuSans-6e" x="714.400391"/>
     <use xlink:href="#DejaVuSans-6c" x="777.779297"/>
     <use xlink:href="#DejaVuSans-79" x="805.5625"/>
    </g>
   </g>
   <g id="text_53">
    <!-- evt = post-shock-5 -->
    <g transform="translate(1728.626677 18.72) scale(0.1 -0.1)">
     <use xlink:href="#DejaVuSans-65"/>
     <use xlink:href="#DejaVuSans-76" x="61.523438"/>
     <use xlink:href="#DejaVuSans-74" x="120.703125"/>
     <use xlink:href="#DejaVuSans-20" x="159.912109"/>
     <use xlink:href="#DejaVuSans-3d" x="191.699219"/>
     <use xlink:href="#DejaVuSans-20" x="275.488281"/>
     <use xlink:href="#DejaVuSans-70" x="307.275391"/>
     <use xlink:href="#DejaVuSans-6f" x="370.751953"/>
     <use xlink:href="#DejaVuSans-73" x="431.933594"/>
     <use xlink:href="#DejaVuSans-74" x="484.033203"/>
     <use xlink:href="#DejaVuSans-2d" x="523.242188"/>
     <use xlink:href="#DejaVuSans-73" x="559.326172"/>
     <use xlink:href="#DejaVuSans-68" x="611.425781"/>
     <use xlink:href="#DejaVuSans-6f" x="674.804688"/>
     <use xlink:href="#DejaVuSans-63" x="735.986328"/>
     <use xlink:href="#DejaVuSans-6b" x="790.966797"/>
     <use xlink:href="#DejaVuSans-2d" x="848.876953"/>
     <use xlink:href="#DejaVuSans-35" x="884.960938"/>
    </g>
   </g>
  </g>
  <g id="legend_1"/>
 </g>
 <defs>
  <clipPath id="p2be4c8263f">
   <rect x="51.079342" y="24.72" width="179.728833" height="149.32"/>
  </clipPath>
  <clipPath id="p4b60202c6a">
   <rect x="255.46832" y="24.72" width="179.728833" height="149.32"/>
  </clipPath>
  <clipPath id="pe4af420323">
   <rect x="459.857298" y="24.72" width="179.728833" height="149.32"/>
  </clipPath>
  <clipPath id="p1ed10e5911">
   <rect x="664.246276" y="24.72" width="179.728833" height="149.32"/>
  </clipPath>
  <clipPath id="pc4d7d39b49">
   <rect x="868.635255" y="24.72" width="179.728833" height="149.32"/>
  </clipPath>
  <clipPath id="pde1eadb494">
   <rect x="1073.024233" y="24.72" width="179.728833" height="149.32"/>
  </clipPath>
  <clipPath id="p1b79a1fad9">
   <rect x="1277.413211" y="24.72" width="179.728833" height="149.32"/>
  </clipPath>
  <clipPath id="peb257a08ab">
   <rect x="1481.802189" y="24.72" width="179.728833" height="149.32"/>
  </clipPath>
  <clipPath id="p753df69ab4">
   <rect x="1686.191167" y="24.72" width="179.728833" height="149.32"/>
  </clipPath>
 </defs>
</svg>
