<?xml version="1.0" encoding="utf-8" standalone="no"?>
<!DOCTYPE svg PUBLIC "-//W3C//DTD SVG 1.1//EN"
  "http://www.w3.org/Graphics/SVG/1.1/DTD/svg11.dtd">
<svg xmlns:xlink="http://www.w3.org/1999/xlink" width="1952pt" height="216pt" viewBox="0 0 1952 216" xmlns="http://www.w3.org/2000/svg" version="1.1">
 <metadata>
  <rdf:RDF xmlns:dc="http://purl.org/dc/elements/1.1/" xmlns:cc="http://creativecommons.org/ns#" xmlns:rdf="http://www.w3.org/1999/02/22-rdf-syntax-ns#">
   <cc:Work>
    <dc:type rdf:resource="http://purl.org/dc/dcmitype/StillImage"/>
    <dc:date>2024-09-13T22:55:15.877142</dc:date>
    <dc:format>image/svg+xml</dc:format>
    <dc:creator>
     <cc:Agent>
      <dc:title>Matplotlib v3.9.1, https://matplotlib.org/</dc:title>
     </cc:Agent>
    </dc:creator>
   </cc:Work>
  </rdf:RDF>
 </metadata>
 <defs>
  <style type="text/css">*{stroke-linejoin: round; stroke-linecap: butt}</style>
 </defs>
 <g id="figure_1">
  <g id="patch_1">
   <path d="M 0 216 
L 1952 216 
L 1952 0 
L 0 0 
z
" style="fill: #ffffff"/>
  </g>
  <g id="axes_1">
   <g id="patch_2">
    <path d="M 44.843786 174.04 
L 233.634522 174.04 
L 233.634522 24.72 
L 44.843786 24.72 
z
" style="fill: #ffffff"/>
   </g>
   <g id="PolyCollection_1"/>
   <g id="matplotlib.axis_1">
    <g id="xtick_1">
     <g id="line2d_1">
      <defs>
       <path id="ma310e02a59" d="M 0 0 
L 0 3.5 
" style="stroke: #000000; stroke-width: 0.8"/>
      </defs>
      <g>
       <use xlink:href="#ma310e02a59" x="53.425183" y="174.04" style="stroke: #000000; stroke-width: 0.8"/>
      </g>
     </g>
     <g id="text_1">
      <!-- 0 -->
      <g transform="translate(50.243933 188.638438) scale(0.1 -0.1)">
       <defs>
        <path id="DejaVuSans-30" d="M 2034 4250 
Q 1547 4250 1301 3770 
Q 1056 3291 1056 2328 
Q 1056 1369 1301 889 
Q 1547 409 2034 409 
Q 2525 409 2770 889 
Q 3016 1369 3016 2328 
Q 3016 3291 2770 3770 
Q 2525 4250 2034 4250 
z
M 2034 4750 
Q 2819 4750 3233 4129 
Q 3647 3509 3647 2328 
Q 3647 1150 3233 529 
Q 2819 -91 2034 -91 
Q 1250 -91 836 529 
Q 422 1150 422 2328 
Q 422 3509 836 4129 
Q 1250 4750 2034 4750 
z
" transform="scale(0.015625)"/>
       </defs>
       <use xlink:href="#DejaVuSans-30"/>
      </g>
     </g>
    </g>
    <g id="xtick_2">
     <g id="line2d_2">
      <g>
       <use xlink:href="#ma310e02a59" x="96.332168" y="174.04" style="stroke: #000000; stroke-width: 0.8"/>
      </g>
     </g>
     <g id="text_2">
      <!-- 100 -->
      <g transform="translate(86.788418 188.638438) scale(0.1 -0.1)">
       <defs>
        <path id="DejaVuSans-31" d="M 794 531 
L 1825 531 
L 1825 4091 
L 703 3866 
L 703 4441 
L 1819 4666 
L 2450 4666 
L 2450 531 
L 3481 531 
L 3481 0 
L 794 0 
L 794 531 
z
" transform="scale(0.015625)"/>
       </defs>
       <use xlink:href="#DejaVuSans-31"/>
       <use xlink:href="#DejaVuSans-30" x="63.623047"/>
       <use xlink:href="#DejaVuSans-30" x="127.246094"/>
      </g>
     </g>
    </g>
    <g id="xtick_3">
     <g id="line2d_3">
      <g>
       <use xlink:href="#ma310e02a59" x="139.239154" y="174.04" style="stroke: #000000; stroke-width: 0.8"/>
      </g>
     </g>
     <g id="text_3">
      <!-- 200 -->
      <g transform="translate(129.695404 188.638438) scale(0.1 -0.1)">
       <defs>
        <path id="DejaVuSans-32" d="M 1228 531 
L 3431 531 
L 3431 0 
L 469 0 
L 469 531 
Q 828 903 1448 1529 
Q 2069 2156 2228 2338 
Q 2531 2678 2651 2914 
Q 2772 3150 2772 3378 
Q 2772 3750 2511 3984 
Q 2250 4219 1831 4219 
Q 1534 4219 1204 4116 
Q 875 4013 500 3803 
L 500 4441 
Q 881 4594 1212 4672 
Q 1544 4750 1819 4750 
Q 2544 4750 2975 4387 
Q 3406 4025 3406 3419 
Q 3406 3131 3298 2873 
Q 3191 2616 2906 2266 
Q 2828 2175 2409 1742 
Q 1991 1309 1228 531 
z
" transform="scale(0.015625)"/>
       </defs>
       <use xlink:href="#DejaVuSans-32"/>
       <use xlink:href="#DejaVuSans-30" x="63.623047"/>
       <use xlink:href="#DejaVuSans-30" x="127.246094"/>
      </g>
     </g>
    </g>
    <g id="xtick_4">
     <g id="line2d_4">
      <g>
       <use xlink:href="#ma310e02a59" x="182.146139" y="174.04" style="stroke: #000000; stroke-width: 0.8"/>
      </g>
     </g>
     <g id="text_4">
      <!-- 300 -->
      <g transform="translate(172.602389 188.638438) scale(0.1 -0.1)">
       <defs>
        <path id="DejaVuSans-33" d="M 2597 2516 
Q 3050 2419 3304 2112 
Q 3559 1806 3559 1356 
Q 3559 666 3084 287 
Q 2609 -91 1734 -91 
Q 1441 -91 1130 -33 
Q 819 25 488 141 
L 488 750 
Q 750 597 1062 519 
Q 1375 441 1716 441 
Q 2309 441 2620 675 
Q 2931 909 2931 1356 
Q 2931 1769 2642 2001 
Q 2353 2234 1838 2234 
L 1294 2234 
L 1294 2753 
L 1863 2753 
Q 2328 2753 2575 2939 
Q 2822 3125 2822 3475 
Q 2822 3834 2567 4026 
Q 2313 4219 1838 4219 
Q 1578 4219 1281 4162 
Q 984 4106 628 3988 
L 628 4550 
Q 988 4650 1302 4700 
Q 1616 4750 1894 4750 
Q 2613 4750 3031 4423 
Q 3450 4097 3450 3541 
Q 3450 3153 3228 2886 
Q 3006 2619 2597 2516 
z
" transform="scale(0.015625)"/>
       </defs>
       <use xlink:href="#DejaVuSans-33"/>
       <use xlink:href="#DejaVuSans-30" x="63.623047"/>
       <use xlink:href="#DejaVuSans-30" x="127.246094"/>
      </g>
     </g>
    </g>
    <g id="xtick_5">
     <g id="line2d_5">
      <g>
       <use xlink:href="#ma310e02a59" x="225.053125" y="174.04" style="stroke: #000000; stroke-width: 0.8"/>
      </g>
     </g>
     <g id="text_5">
      <!-- 400 -->
      <g transform="translate(215.509375 188.638438) scale(0.1 -0.1)">
       <defs>
        <path id="DejaVuSans-34" d="M 2419 4116 
L 825 1625 
L 2419 1625 
L 2419 4116 
z
M 2253 4666 
L 3047 4666 
L 3047 1625 
L 3713 1625 
L 3713 1100 
L 3047 1100 
L 3047 0 
L 2419 0 
L 2419 1100 
L 313 1100 
L 313 1709 
L 2253 4666 
z
" transform="scale(0.015625)"/>
       </defs>
       <use xlink:href="#DejaVuSans-34"/>
       <use xlink:href="#DejaVuSans-30" x="63.623047"/>
       <use xlink:href="#DejaVuSans-30" x="127.246094"/>
      </g>
     </g>
    </g>
    <g id="text_6">
     <!-- frame -->
     <g transform="translate(124.412591 202.316563) scale(0.1 -0.1)">
      <defs>
       <path id="DejaVuSans-66" d="M 2375 4863 
L 2375 4384 
L 1825 4384 
Q 1516 4384 1395 4259 
Q 1275 4134 1275 3809 
L 1275 3500 
L 2222 3500 
L 2222 3053 
L 1275 3053 
L 1275 0 
L 697 0 
L 697 3053 
L 147 3053 
L 147 3500 
L 697 3500 
L 697 3744 
Q 697 4328 969 4595 
Q 1241 4863 1831 4863 
L 2375 4863 
z
" transform="scale(0.015625)"/>
       <path id="DejaVuSans-72" d="M 2631 2963 
Q 2534 3019 2420 3045 
Q 2306 3072 2169 3072 
Q 1681 3072 1420 2755 
Q 1159 2438 1159 1844 
L 1159 0 
L 581 0 
L 581 3500 
L 1159 3500 
L 1159 2956 
Q 1341 3275 1631 3429 
Q 1922 3584 2338 3584 
Q 2397 3584 2469 3576 
Q 2541 3569 2628 3553 
L 2631 2963 
z
" transform="scale(0.015625)"/>
       <path id="DejaVuSans-61" d="M 2194 1759 
Q 1497 1759 1228 1600 
Q 959 1441 959 1056 
Q 959 750 1161 570 
Q 1363 391 1709 391 
Q 2188 391 2477 730 
Q 2766 1069 2766 1631 
L 2766 1759 
L 2194 1759 
z
M 3341 1997 
L 3341 0 
L 2766 0 
L 2766 531 
Q 2569 213 2275 61 
Q 1981 -91 1556 -91 
Q 1019 -91 701 211 
Q 384 513 384 1019 
Q 384 1609 779 1909 
Q 1175 2209 1959 2209 
L 2766 2209 
L 2766 2266 
Q 2766 2663 2505 2880 
Q 2244 3097 1772 3097 
Q 1472 3097 1187 3025 
Q 903 2953 641 2809 
L 641 3341 
Q 956 3463 1253 3523 
Q 1550 3584 1831 3584 
Q 2591 3584 2966 3190 
Q 3341 2797 3341 1997 
z
" transform="scale(0.015625)"/>
       <path id="DejaVuSans-6d" d="M 3328 2828 
Q 3544 3216 3844 3400 
Q 4144 3584 4550 3584 
Q 5097 3584 5394 3201 
Q 5691 2819 5691 2113 
L 5691 0 
L 5113 0 
L 5113 2094 
Q 5113 2597 4934 2840 
Q 4756 3084 4391 3084 
Q 3944 3084 3684 2787 
Q 3425 2491 3425 1978 
L 3425 0 
L 2847 0 
L 2847 2094 
Q 2847 2600 2669 2842 
Q 2491 3084 2119 3084 
Q 1678 3084 1418 2786 
Q 1159 2488 1159 1978 
L 1159 0 
L 581 0 
L 581 3500 
L 1159 3500 
L 1159 2956 
Q 1356 3278 1631 3431 
Q 1906 3584 2284 3584 
Q 2666 3584 2933 3390 
Q 3200 3197 3328 2828 
z
" transform="scale(0.015625)"/>
       <path id="DejaVuSans-65" d="M 3597 1894 
L 3597 1613 
L 953 1613 
Q 991 1019 1311 708 
Q 1631 397 2203 397 
Q 2534 397 2845 478 
Q 3156 559 3463 722 
L 3463 178 
Q 3153 47 2828 -22 
Q 2503 -91 2169 -91 
Q 1331 -91 842 396 
Q 353 884 353 1716 
Q 353 2575 817 3079 
Q 1281 3584 2069 3584 
Q 2775 3584 3186 3129 
Q 3597 2675 3597 1894 
z
M 3022 2063 
Q 3016 2534 2758 2815 
Q 2500 3097 2075 3097 
Q 1594 3097 1305 2825 
Q 1016 2553 972 2059 
L 3022 2063 
z
" transform="scale(0.015625)"/>
      </defs>
      <use xlink:href="#DejaVuSans-66"/>
      <use xlink:href="#DejaVuSans-72" x="35.205078"/>
      <use xlink:href="#DejaVuSans-61" x="76.318359"/>
      <use xlink:href="#DejaVuSans-6d" x="137.597656"/>
      <use xlink:href="#DejaVuSans-65" x="235.009766"/>
     </g>
    </g>
   </g>
   <g id="matplotlib.axis_2">
    <g id="ytick_1">
     <g id="line2d_6">
      <defs>
       <path id="m8761d5d66d" d="M 0 0 
L -3.5 0 
" style="stroke: #000000; stroke-width: 0.8"/>
      </defs>
      <g>
       <use xlink:href="#m8761d5d66d" x="44.843786" y="165.31335" style="stroke: #000000; stroke-width: 0.8"/>
      </g>
     </g>
     <g id="text_7">
      <!-- 0 -->
      <g transform="translate(31.481286 169.112569) scale(0.1 -0.1)">
       <use xlink:href="#DejaVuSans-30"/>
      </g>
     </g>
    </g>
    <g id="ytick_2">
     <g id="line2d_7">
      <g>
       <use xlink:href="#m8761d5d66d" x="44.843786" y="127.555232" style="stroke: #000000; stroke-width: 0.8"/>
      </g>
     </g>
     <g id="text_8">
      <!-- 20 -->
      <g transform="translate(25.118786 131.354451) scale(0.1 -0.1)">
       <use xlink:href="#DejaVuSans-32"/>
       <use xlink:href="#DejaVuSans-30" x="63.623047"/>
      </g>
     </g>
    </g>
    <g id="ytick_3">
     <g id="line2d_8">
      <g>
       <use xlink:href="#m8761d5d66d" x="44.843786" y="89.797114" style="stroke: #000000; stroke-width: 0.8"/>
      </g>
     </g>
     <g id="text_9">
      <!-- 40 -->
      <g transform="translate(25.118786 93.596333) scale(0.1 -0.1)">
       <use xlink:href="#DejaVuSans-34"/>
       <use xlink:href="#DejaVuSans-30" x="63.623047"/>
      </g>
     </g>
    </g>
    <g id="ytick_4">
     <g id="line2d_9">
      <g>
       <use xlink:href="#m8761d5d66d" x="44.843786" y="52.038996" style="stroke: #000000; stroke-width: 0.8"/>
      </g>
     </g>
     <g id="text_10">
      <!-- 60 -->
      <g transform="translate(25.118786 55.838215) scale(0.1 -0.1)">
       <defs>
        <path id="DejaVuSans-36" d="M 2113 2584 
Q 1688 2584 1439 2293 
Q 1191 2003 1191 1497 
Q 1191 994 1439 701 
Q 1688 409 2113 409 
Q 2538 409 2786 701 
Q 3034 994 3034 1497 
Q 3034 2003 2786 2293 
Q 2538 2584 2113 2584 
z
M 3366 4563 
L 3366 3988 
Q 3128 4100 2886 4159 
Q 2644 4219 2406 4219 
Q 1781 4219 1451 3797 
Q 1122 3375 1075 2522 
Q 1259 2794 1537 2939 
Q 1816 3084 2150 3084 
Q 2853 3084 3261 2657 
Q 3669 2231 3669 1497 
Q 3669 778 3244 343 
Q 2819 -91 2113 -91 
Q 1303 -91 875 529 
Q 447 1150 447 2328 
Q 447 3434 972 4092 
Q 1497 4750 2381 4750 
Q 2619 4750 2861 4703 
Q 3103 4656 3366 4563 
z
" transform="scale(0.015625)"/>
       </defs>
       <use xlink:href="#DejaVuSans-36"/>
       <use xlink:href="#DejaVuSans-30" x="63.623047"/>
      </g>
     </g>
    </g>
    <g id="text_11">
     <!-- value -->
     <g transform="translate(19.039099 113.037813) rotate(-90) scale(0.1 -0.1)">
      <defs>
       <path id="DejaVuSans-76" d="M 191 3500 
L 800 3500 
L 1894 563 
L 2988 3500 
L 3597 3500 
L 2284 0 
L 1503 0 
L 191 3500 
z
" transform="scale(0.015625)"/>
       <path id="DejaVuSans-6c" d="M 603 4863 
L 1178 4863 
L 1178 0 
L 603 0 
L 603 4863 
z
" transform="scale(0.015625)"/>
       <path id="DejaVuSans-75" d="M 544 1381 
L 544 3500 
L 1119 3500 
L 1119 1403 
Q 1119 906 1312 657 
Q 1506 409 1894 409 
Q 2359 409 2629 706 
Q 2900 1003 2900 1516 
L 2900 3500 
L 3475 3500 
L 3475 0 
L 2900 0 
L 2900 538 
Q 2691 219 2414 64 
Q 2138 -91 1772 -91 
Q 1169 -91 856 284 
Q 544 659 544 1381 
z
M 1991 3584 
L 1991 3584 
z
" transform="scale(0.015625)"/>
      </defs>
      <use xlink:href="#DejaVuSans-76"/>
      <use xlink:href="#DejaVuSans-61" x="59.179688"/>
      <use xlink:href="#DejaVuSans-6c" x="120.458984"/>
      <use xlink:href="#DejaVuSans-75" x="148.242188"/>
      <use xlink:href="#DejaVuSans-65" x="211.621094"/>
     </g>
    </g>
   </g>
   <g id="line2d_10">
    <path d="M 53.425183 165.1963 
L 55.999602 164.978606 
L 58.574021 164.815829 
L 64.580999 165.298065 
L 68.871698 164.999789 
L 71.446117 164.574499 
L 74.878676 164.889007 
L 82.172863 165.437204 
L 92.89961 166.047156 
L 95.474029 166.068508 
L 97.619378 165.829607 
L 99.335657 164.976052 
L 100.193797 164.940787 
L 102.339146 165.053731 
L 104.913566 164.95059 
L 107.917055 164.752794 
L 108.346124 164.61212 
L 115.211242 165.226058 
L 116.927521 165.116928 
L 119.501941 165.240411 
L 122.50543 165.270822 
L 123.363569 164.731217 
L 124.221709 164.705158 
L 128.512408 165.021734 
L 129.370547 165.013867 
L 134.948455 165.290221 
L 136.235665 165.218258 
L 144.817062 165.67777 
L 150.82404 165.095158 
L 155.114738 165.236724 
L 156.831018 165.328167 
L 158.976367 165.396759 
L 162.408926 165.257372 
L 164.125205 165.106167 
L 166.270555 165.0985 
L 167.128694 164.723756 
L 168.844974 164.734135 
L 173.135672 164.70185 
L 181.288 165.386338 
L 188.153117 165.824199 
L 189.440327 165.755447 
L 195.018235 166.026366 
L 197.163584 165.946796 
L 200.596143 166.045915 
L 203.170562 166.090412 
L 205.315911 166.15022 
L 207.032191 165.933706 
L 210.46475 166.107719 
L 211.751959 165.442585 
L 213.897308 165.091096 
L 219.904286 165.505502 
L 221.191496 165.048214 
L 222.478706 164.491162 
L 224.624055 164.580756 
L 225.053125 165.775511 
L 225.053125 165.775511 
" clip-path="url(#p5767bf13cd)" style="fill: none; stroke: #000000; stroke-width: 2.5; stroke-linecap: square"/>
   </g>
   <g id="patch_3">
    <path d="M 44.843786 174.04 
L 44.843786 24.72 
" style="fill: none; stroke: #000000; stroke-width: 0.8; stroke-linejoin: miter; stroke-linecap: square"/>
   </g>
   <g id="patch_4">
    <path d="M 44.843786 174.04 
L 233.634522 174.04 
" style="fill: none; stroke: #000000; stroke-width: 0.8; stroke-linejoin: miter; stroke-linecap: square"/>
   </g>
   <g id="text_12">
    <!-- evt = baseline -->
    <g transform="translate(102.932123 18.72) scale(0.1 -0.1)">
     <defs>
      <path id="DejaVuSans-74" d="M 1172 4494 
L 1172 3500 
L 2356 3500 
L 2356 3053 
L 1172 3053 
L 1172 1153 
Q 1172 725 1289 603 
Q 1406 481 1766 481 
L 2356 481 
L 2356 0 
L 1766 0 
Q 1100 0 847 248 
Q 594 497 594 1153 
L 594 3053 
L 172 3053 
L 172 3500 
L 594 3500 
L 594 4494 
L 1172 4494 
z
" transform="scale(0.015625)"/>
      <path id="DejaVuSans-20" transform="scale(0.015625)"/>
      <path id="DejaVuSans-3d" d="M 678 2906 
L 4684 2906 
L 4684 2381 
L 678 2381 
L 678 2906 
z
M 678 1631 
L 4684 1631 
L 4684 1100 
L 678 1100 
L 678 1631 
z
" transform="scale(0.015625)"/>
      <path id="DejaVuSans-62" d="M 3116 1747 
Q 3116 2381 2855 2742 
Q 2594 3103 2138 3103 
Q 1681 3103 1420 2742 
Q 1159 2381 1159 1747 
Q 1159 1113 1420 752 
Q 1681 391 2138 391 
Q 2594 391 2855 752 
Q 3116 1113 3116 1747 
z
M 1159 2969 
Q 1341 3281 1617 3432 
Q 1894 3584 2278 3584 
Q 2916 3584 3314 3078 
Q 3713 2572 3713 1747 
Q 3713 922 3314 415 
Q 2916 -91 2278 -91 
Q 1894 -91 1617 61 
Q 1341 213 1159 525 
L 1159 0 
L 581 0 
L 581 4863 
L 1159 4863 
L 1159 2969 
z
" transform="scale(0.015625)"/>
      <path id="DejaVuSans-73" d="M 2834 3397 
L 2834 2853 
Q 2591 2978 2328 3040 
Q 2066 3103 1784 3103 
Q 1356 3103 1142 2972 
Q 928 2841 928 2578 
Q 928 2378 1081 2264 
Q 1234 2150 1697 2047 
L 1894 2003 
Q 2506 1872 2764 1633 
Q 3022 1394 3022 966 
Q 3022 478 2636 193 
Q 2250 -91 1575 -91 
Q 1294 -91 989 -36 
Q 684 19 347 128 
L 347 722 
Q 666 556 975 473 
Q 1284 391 1588 391 
Q 1994 391 2212 530 
Q 2431 669 2431 922 
Q 2431 1156 2273 1281 
Q 2116 1406 1581 1522 
L 1381 1569 
Q 847 1681 609 1914 
Q 372 2147 372 2553 
Q 372 3047 722 3315 
Q 1072 3584 1716 3584 
Q 2034 3584 2315 3537 
Q 2597 3491 2834 3397 
z
" transform="scale(0.015625)"/>
      <path id="DejaVuSans-69" d="M 603 3500 
L 1178 3500 
L 1178 0 
L 603 0 
L 603 3500 
z
M 603 4863 
L 1178 4863 
L 1178 4134 
L 603 4134 
L 603 4863 
z
" transform="scale(0.015625)"/>
      <path id="DejaVuSans-6e" d="M 3513 2113 
L 3513 0 
L 2938 0 
L 2938 2094 
Q 2938 2591 2744 2837 
Q 2550 3084 2163 3084 
Q 1697 3084 1428 2787 
Q 1159 2491 1159 1978 
L 1159 0 
L 581 0 
L 581 3500 
L 1159 3500 
L 1159 2956 
Q 1366 3272 1645 3428 
Q 1925 3584 2291 3584 
Q 2894 3584 3203 3211 
Q 3513 2838 3513 2113 
z
" transform="scale(0.015625)"/>
     </defs>
     <use xlink:href="#DejaVuSans-65"/>
     <use xlink:href="#DejaVuSans-76" x="61.523438"/>
     <use xlink:href="#DejaVuSans-74" x="120.703125"/>
     <use xlink:href="#DejaVuSans-20" x="159.912109"/>
     <use xlink:href="#DejaVuSans-3d" x="191.699219"/>
     <use xlink:href="#DejaVuSans-20" x="275.488281"/>
     <use xlink:href="#DejaVuSans-62" x="307.275391"/>
     <use xlink:href="#DejaVuSans-61" x="370.751953"/>
     <use xlink:href="#DejaVuSans-73" x="432.03125"/>
     <use xlink:href="#DejaVuSans-65" x="484.130859"/>
     <use xlink:href="#DejaVuSans-6c" x="545.654297"/>
     <use xlink:href="#DejaVuSans-69" x="573.4375"/>
     <use xlink:href="#DejaVuSans-6e" x="601.220703"/>
     <use xlink:href="#DejaVuSans-65" x="664.599609"/>
    </g>
   </g>
  </g>
  <g id="axes_2">
   <g id="patch_5">
    <path d="M 248.879471 174.04 
L 437.670207 174.04 
L 437.670207 24.72 
L 248.879471 24.72 
z
" style="fill: #ffffff"/>
   </g>
   <g id="PolyCollection_2"/>
   <g id="matplotlib.axis_3">
    <g id="xtick_6">
     <g id="line2d_11">
      <g>
       <use xlink:href="#ma310e02a59" x="257.460868" y="174.04" style="stroke: #000000; stroke-width: 0.8"/>
      </g>
     </g>
     <g id="text_13">
      <!-- 0 -->
      <g transform="translate(254.279618 188.638438) scale(0.1 -0.1)">
       <use xlink:href="#DejaVuSans-30"/>
      </g>
     </g>
    </g>
    <g id="xtick_7">
     <g id="line2d_12">
      <g>
       <use xlink:href="#ma310e02a59" x="300.367853" y="174.04" style="stroke: #000000; stroke-width: 0.8"/>
      </g>
     </g>
     <g id="text_14">
      <!-- 100 -->
      <g transform="translate(290.824103 188.638438) scale(0.1 -0.1)">
       <use xlink:href="#DejaVuSans-31"/>
       <use xlink:href="#DejaVuSans-30" x="63.623047"/>
       <use xlink:href="#DejaVuSans-30" x="127.246094"/>
      </g>
     </g>
    </g>
    <g id="xtick_8">
     <g id="line2d_13">
      <g>
       <use xlink:href="#ma310e02a59" x="343.274839" y="174.04" style="stroke: #000000; stroke-width: 0.8"/>
      </g>
     </g>
     <g id="text_15">
      <!-- 200 -->
      <g transform="translate(333.731089 188.638438) scale(0.1 -0.1)">
       <use xlink:href="#DejaVuSans-32"/>
       <use xlink:href="#DejaVuSans-30" x="63.623047"/>
       <use xlink:href="#DejaVuSans-30" x="127.246094"/>
      </g>
     </g>
    </g>
    <g id="xtick_9">
     <g id="line2d_14">
      <g>
       <use xlink:href="#ma310e02a59" x="386.181824" y="174.04" style="stroke: #000000; stroke-width: 0.8"/>
      </g>
     </g>
     <g id="text_16">
      <!-- 300 -->
      <g transform="translate(376.638074 188.638438) scale(0.1 -0.1)">
       <use xlink:href="#DejaVuSans-33"/>
       <use xlink:href="#DejaVuSans-30" x="63.623047"/>
       <use xlink:href="#DejaVuSans-30" x="127.246094"/>
      </g>
     </g>
    </g>
    <g id="xtick_10">
     <g id="line2d_15">
      <g>
       <use xlink:href="#ma310e02a59" x="429.088809" y="174.04" style="stroke: #000000; stroke-width: 0.8"/>
      </g>
     </g>
     <g id="text_17">
      <!-- 400 -->
      <g transform="translate(419.545059 188.638438) scale(0.1 -0.1)">
       <use xlink:href="#DejaVuSans-34"/>
       <use xlink:href="#DejaVuSans-30" x="63.623047"/>
       <use xlink:href="#DejaVuSans-30" x="127.246094"/>
      </g>
     </g>
    </g>
    <g id="text_18">
     <!-- frame -->
     <g transform="translate(328.448276 202.316563) scale(0.1 -0.1)">
      <use xlink:href="#DejaVuSans-66"/>
      <use xlink:href="#DejaVuSans-72" x="35.205078"/>
      <use xlink:href="#DejaVuSans-61" x="76.318359"/>
      <use xlink:href="#DejaVuSans-6d" x="137.597656"/>
      <use xlink:href="#DejaVuSans-65" x="235.009766"/>
     </g>
    </g>
   </g>
   <g id="matplotlib.axis_4">
    <g id="ytick_5">
     <g id="line2d_16">
      <g>
       <use xlink:href="#m8761d5d66d" x="248.879471" y="165.31335" style="stroke: #000000; stroke-width: 0.8"/>
      </g>
     </g>
    </g>
    <g id="ytick_6">
     <g id="line2d_17">
      <g>
       <use xlink:href="#m8761d5d66d" x="248.879471" y="127.555232" style="stroke: #000000; stroke-width: 0.8"/>
      </g>
     </g>
    </g>
    <g id="ytick_7">
     <g id="line2d_18">
      <g>
       <use xlink:href="#m8761d5d66d" x="248.879471" y="89.797114" style="stroke: #000000; stroke-width: 0.8"/>
      </g>
     </g>
    </g>
    <g id="ytick_8">
     <g id="line2d_19">
      <g>
       <use xlink:href="#m8761d5d66d" x="248.879471" y="52.038996" style="stroke: #000000; stroke-width: 0.8"/>
      </g>
     </g>
    </g>
   </g>
   <g id="line2d_20">
    <path d="M 257.460868 164.636929 
L 260.464357 164.838047 
L 261.751566 164.883586 
L 266.900405 165.243723 
L 271.191103 165.252893 
L 275.052732 165.466474 
L 277.198081 165.338516 
L 282.346919 165.670494 
L 284.921339 164.922136 
L 286.208548 164.553697 
L 290.499247 164.883517 
L 293.931805 164.735884 
L 295.219015 164.696809 
L 298.651574 164.99496 
L 308.94925 165.745913 
L 314.098089 165.965849 
L 315.814368 163.368303 
L 316.243438 163.223455 
L 323.108556 164.137783 
L 325.682975 164.347315 
L 327.828324 164.206584 
L 329.973673 164.343061 
L 333.835302 164.606402 
L 335.551581 164.774526 
L 335.980651 164.646946 
L 337.696931 162.706211 
L 338.98414 162.58391 
L 339.84228 162.504829 
L 346.278328 163.514674 
L 353.143445 164.366007 
L 353.572515 164.353627 
L 354.430655 162.628633 
L 355.288795 160.413323 
L 356.576004 156.277639 
L 357.434144 152.602732 
L 359.150423 145.588871 
L 360.437633 140.64537 
L 360.866703 139.232166 
L 361.295773 138.740147 
L 364.299262 141.588034 
L 367.73182 144.505651 
L 370.306239 146.468936 
L 372.451589 147.968344 
L 374.167868 148.570079 
L 376.742287 149.335275 
L 379.745776 151.167623 
L 380.174846 151.32568 
L 381.891126 144.901451 
L 384.036475 136.899393 
L 384.465545 135.507365 
L 385.323684 136.35389 
L 388.327173 139.486886 
L 391.330662 142.315406 
L 392.617872 143.388352 
L 394.763221 144.75583 
L 395.621361 145.320104 
L 401.199269 148.362402 
L 404.202758 150.269185 
L 405.919037 150.881482 
L 408.064387 151.51407 
L 411.067876 153.10389 
L 415.358574 154.927948 
L 416.216714 154.789797 
L 416.645784 154.67227 
L 417.932993 149.652803 
L 421.365552 135.089893 
L 421.794622 134.964158 
L 424.798111 138.245908 
L 427.8016 141.199954 
L 428.23067 141.596829 
L 428.65974 135.86885 
L 429.088809 165.504277 
L 429.088809 165.504277 
" clip-path="url(#pb513b5b7d8)" style="fill: none; stroke: #000000; stroke-width: 2.5; stroke-linecap: square"/>
   </g>
   <g id="patch_6">
    <path d="M 248.879471 174.04 
L 248.879471 24.72 
" style="fill: none; stroke: #000000; stroke-width: 0.8; stroke-linejoin: miter; stroke-linecap: square"/>
   </g>
   <g id="patch_7">
    <path d="M 248.879471 174.04 
L 437.670207 174.04 
" style="fill: none; stroke: #000000; stroke-width: 0.8; stroke-linejoin: miter; stroke-linecap: square"/>
   </g>
   <g id="text_19">
    <!-- evt = tone -->
    <g transform="translate(316.645932 18.72) scale(0.1 -0.1)">
     <defs>
      <path id="DejaVuSans-6f" d="M 1959 3097 
Q 1497 3097 1228 2736 
Q 959 2375 959 1747 
Q 959 1119 1226 758 
Q 1494 397 1959 397 
Q 2419 397 2687 759 
Q 2956 1122 2956 1747 
Q 2956 2369 2687 2733 
Q 2419 3097 1959 3097 
z
M 1959 3584 
Q 2709 3584 3137 3096 
Q 3566 2609 3566 1747 
Q 3566 888 3137 398 
Q 2709 -91 1959 -91 
Q 1206 -91 779 398 
Q 353 888 353 1747 
Q 353 2609 779 3096 
Q 1206 3584 1959 3584 
z
" transform="scale(0.015625)"/>
     </defs>
     <use xlink:href="#DejaVuSans-65"/>
     <use xlink:href="#DejaVuSans-76" x="61.523438"/>
     <use xlink:href="#DejaVuSans-74" x="120.703125"/>
     <use xlink:href="#DejaVuSans-20" x="159.912109"/>
     <use xlink:href="#DejaVuSans-3d" x="191.699219"/>
     <use xlink:href="#DejaVuSans-20" x="275.488281"/>
     <use xlink:href="#DejaVuSans-74" x="307.275391"/>
     <use xlink:href="#DejaVuSans-6f" x="346.484375"/>
     <use xlink:href="#DejaVuSans-6e" x="407.666016"/>
     <use xlink:href="#DejaVuSans-65" x="471.044922"/>
    </g>
   </g>
  </g>
  <g id="axes_3">
   <g id="patch_8">
    <path d="M 452.915156 174.04 
L 641.705891 174.04 
L 641.705891 24.72 
L 452.915156 24.72 
z
" style="fill: #ffffff"/>
   </g>
   <g id="PolyCollection_3"/>
   <g id="matplotlib.axis_5">
    <g id="xtick_11">
     <g id="line2d_21">
      <g>
       <use xlink:href="#ma310e02a59" x="461.496553" y="174.04" style="stroke: #000000; stroke-width: 0.8"/>
      </g>
     </g>
     <g id="text_20">
      <!-- 0 -->
      <g transform="translate(458.315303 188.638438) scale(0.1 -0.1)">
       <use xlink:href="#DejaVuSans-30"/>
      </g>
     </g>
    </g>
    <g id="xtick_12">
     <g id="line2d_22">
      <g>
       <use xlink:href="#ma310e02a59" x="504.403538" y="174.04" style="stroke: #000000; stroke-width: 0.8"/>
      </g>
     </g>
     <g id="text_21">
      <!-- 100 -->
      <g transform="translate(494.859788 188.638438) scale(0.1 -0.1)">
       <use xlink:href="#DejaVuSans-31"/>
       <use xlink:href="#DejaVuSans-30" x="63.623047"/>
       <use xlink:href="#DejaVuSans-30" x="127.246094"/>
      </g>
     </g>
    </g>
    <g id="xtick_13">
     <g id="line2d_23">
      <g>
       <use xlink:href="#ma310e02a59" x="547.310523" y="174.04" style="stroke: #000000; stroke-width: 0.8"/>
      </g>
     </g>
     <g id="text_22">
      <!-- 200 -->
      <g transform="translate(537.766773 188.638438) scale(0.1 -0.1)">
       <use xlink:href="#DejaVuSans-32"/>
       <use xlink:href="#DejaVuSans-30" x="63.623047"/>
       <use xlink:href="#DejaVuSans-30" x="127.246094"/>
      </g>
     </g>
    </g>
    <g id="xtick_14">
     <g id="line2d_24">
      <g>
       <use xlink:href="#ma310e02a59" x="590.217509" y="174.04" style="stroke: #000000; stroke-width: 0.8"/>
      </g>
     </g>
     <g id="text_23">
      <!-- 300 -->
      <g transform="translate(580.673759 188.638438) scale(0.1 -0.1)">
       <use xlink:href="#DejaVuSans-33"/>
       <use xlink:href="#DejaVuSans-30" x="63.623047"/>
       <use xlink:href="#DejaVuSans-30" x="127.246094"/>
      </g>
     </g>
    </g>
    <g id="xtick_15">
     <g id="line2d_25">
      <g>
       <use xlink:href="#ma310e02a59" x="633.124494" y="174.04" style="stroke: #000000; stroke-width: 0.8"/>
      </g>
     </g>
     <g id="text_24">
      <!-- 400 -->
      <g transform="translate(623.580744 188.638438) scale(0.1 -0.1)">
       <use xlink:href="#DejaVuSans-34"/>
       <use xlink:href="#DejaVuSans-30" x="63.623047"/>
       <use xlink:href="#DejaVuSans-30" x="127.246094"/>
      </g>
     </g>
    </g>
    <g id="text_25">
     <!-- frame -->
     <g transform="translate(532.483961 202.316563) scale(0.1 -0.1)">
      <use xlink:href="#DejaVuSans-66"/>
      <use xlink:href="#DejaVuSans-72" x="35.205078"/>
      <use xlink:href="#DejaVuSans-61" x="76.318359"/>
      <use xlink:href="#DejaVuSans-6d" x="137.597656"/>
      <use xlink:href="#DejaVuSans-65" x="235.009766"/>
     </g>
    </g>
   </g>
   <g id="matplotlib.axis_6">
    <g id="ytick_9">
     <g id="line2d_26">
      <g>
       <use xlink:href="#m8761d5d66d" x="452.915156" y="165.31335" style="stroke: #000000; stroke-width: 0.8"/>
      </g>
     </g>
    </g>
    <g id="ytick_10">
     <g id="line2d_27">
      <g>
       <use xlink:href="#m8761d5d66d" x="452.915156" y="127.555232" style="stroke: #000000; stroke-width: 0.8"/>
      </g>
     </g>
    </g>
    <g id="ytick_11">
     <g id="line2d_28">
      <g>
       <use xlink:href="#m8761d5d66d" x="452.915156" y="89.797114" style="stroke: #000000; stroke-width: 0.8"/>
      </g>
     </g>
    </g>
    <g id="ytick_12">
     <g id="line2d_29">
      <g>
       <use xlink:href="#m8761d5d66d" x="452.915156" y="52.038996" style="stroke: #000000; stroke-width: 0.8"/>
      </g>
     </g>
    </g>
   </g>
   <g id="line2d_30">
    <path d="M 461.496553 142.37306 
L 464.500042 144.908498 
L 467.9326 147.494951 
L 471.365159 149.784633 
L 474.797718 151.811596 
L 476.084928 152.417313 
L 477.801207 152.878151 
L 480.375626 153.555407 
L 482.091906 154.277869 
L 485.953534 155.373162 
L 487.669814 156.062961 
L 488.098884 155.673918 
L 489.386093 154.003118 
L 491.102373 154.756312 
L 495.393071 156.543137 
L 496.251211 156.870451 
L 497.109351 156.684878 
L 498.39656 156.158936 
L 501.400049 154.586407 
L 502.258189 154.874556 
L 506.119817 156.475788 
L 514.701215 159.269306 
L 516.417494 159.742507 
L 516.846564 159.662847 
L 518.991913 158.04235 
L 520.279123 157.070616 
L 521.566332 156.09416 
L 522.424472 156.177746 
L 522.853542 155.683058 
L 524.140751 152.018961 
L 525.427961 147.572346 
L 528.00238 138.314897 
L 531.005869 141.25695 
L 531.864009 141.446653 
L 533.151218 141.411163 
L 534.867498 141.193512 
L 536.583777 142.652438 
L 543.019825 147.408023 
L 543.448895 147.477804 
L 544.736104 147.062011 
L 547.310523 146.078158 
L 552.030292 149.255452 
L 552.459362 149.406968 
L 554.175641 150.421243 
L 558.03727 152.293863 
L 561.898898 153.89078 
L 565.760527 155.628084 
L 570.051226 157.298634 
L 574.341924 158.733125 
L 579.061693 160.07796 
L 584.210531 161.30969 
L 588.07216 162.058632 
L 589.359369 161.279869 
L 590.646579 160.208499 
L 592.362858 158.677594 
L 592.791928 158.56681 
L 594.937277 158.849448 
L 600.086115 160.227854 
L 602.231465 160.559498 
L 604.805884 160.691824 
L 606.951233 160.787036 
L 608.238443 161.001123 
L 609.954722 160.66917 
L 613.816351 160.836841 
L 616.81984 161.447281 
L 620.681468 162.022643 
L 623.255888 162.191772 
L 624.114027 162.315445 
L 625.830307 161.030922 
L 627.975656 159.284083 
L 628.404726 159.104496 
L 632.266355 160.173288 
L 632.695424 160.249321 
L 633.124494 164.628178 
L 633.124494 164.628178 
" clip-path="url(#p4b21d9fd62)" style="fill: none; stroke: #000000; stroke-width: 2.5; stroke-linecap: square"/>
   </g>
   <g id="patch_9">
    <path d="M 452.915156 174.04 
L 452.915156 24.72 
" style="fill: none; stroke: #000000; stroke-width: 0.8; stroke-linejoin: miter; stroke-linecap: square"/>
   </g>
   <g id="patch_10">
    <path d="M 452.915156 174.04 
L 641.705891 174.04 
" style="fill: none; stroke: #000000; stroke-width: 0.8; stroke-linejoin: miter; stroke-linecap: square"/>
   </g>
   <g id="text_26">
    <!-- evt = trace -->
    <g transform="translate(519.040992 18.72) scale(0.1 -0.1)">
     <defs>
      <path id="DejaVuSans-63" d="M 3122 3366 
L 3122 2828 
Q 2878 2963 2633 3030 
Q 2388 3097 2138 3097 
Q 1578 3097 1268 2742 
Q 959 2388 959 1747 
Q 959 1106 1268 751 
Q 1578 397 2138 397 
Q 2388 397 2633 464 
Q 2878 531 3122 666 
L 3122 134 
Q 2881 22 2623 -34 
Q 2366 -91 2075 -91 
Q 1284 -91 818 406 
Q 353 903 353 1747 
Q 353 2603 823 3093 
Q 1294 3584 2113 3584 
Q 2378 3584 2631 3529 
Q 2884 3475 3122 3366 
z
" transform="scale(0.015625)"/>
     </defs>
     <use xlink:href="#DejaVuSans-65"/>
     <use xlink:href="#DejaVuSans-76" x="61.523438"/>
     <use xlink:href="#DejaVuSans-74" x="120.703125"/>
     <use xlink:href="#DejaVuSans-20" x="159.912109"/>
     <use xlink:href="#DejaVuSans-3d" x="191.699219"/>
     <use xlink:href="#DejaVuSans-20" x="275.488281"/>
     <use xlink:href="#DejaVuSans-74" x="307.275391"/>
     <use xlink:href="#DejaVuSans-72" x="346.484375"/>
     <use xlink:href="#DejaVuSans-61" x="387.597656"/>
     <use xlink:href="#DejaVuSans-63" x="448.876953"/>
     <use xlink:href="#DejaVuSans-65" x="503.857422"/>
    </g>
   </g>
  </g>
  <g id="axes_4">
   <g id="patch_11">
    <path d="M 656.95084 174.04 
L 845.741576 174.04 
L 845.741576 24.72 
L 656.95084 24.72 
z
" style="fill: #ffffff"/>
   </g>
   <g id="PolyCollection_4"/>
   <g id="matplotlib.axis_7">
    <g id="xtick_16">
     <g id="line2d_31">
      <g>
       <use xlink:href="#ma310e02a59" x="665.532237" y="174.04" style="stroke: #000000; stroke-width: 0.8"/>
      </g>
     </g>
     <g id="text_27">
      <!-- 0 -->
      <g transform="translate(662.350987 188.638438) scale(0.1 -0.1)">
       <use xlink:href="#DejaVuSans-30"/>
      </g>
     </g>
    </g>
    <g id="xtick_17">
     <g id="line2d_32">
      <g>
       <use xlink:href="#ma310e02a59" x="708.439223" y="174.04" style="stroke: #000000; stroke-width: 0.8"/>
      </g>
     </g>
     <g id="text_28">
      <!-- 100 -->
      <g transform="translate(698.895473 188.638438) scale(0.1 -0.1)">
       <use xlink:href="#DejaVuSans-31"/>
       <use xlink:href="#DejaVuSans-30" x="63.623047"/>
       <use xlink:href="#DejaVuSans-30" x="127.246094"/>
      </g>
     </g>
    </g>
    <g id="xtick_18">
     <g id="line2d_33">
      <g>
       <use xlink:href="#ma310e02a59" x="751.346208" y="174.04" style="stroke: #000000; stroke-width: 0.8"/>
      </g>
     </g>
     <g id="text_29">
      <!-- 200 -->
      <g transform="translate(741.802458 188.638438) scale(0.1 -0.1)">
       <use xlink:href="#DejaVuSans-32"/>
       <use xlink:href="#DejaVuSans-30" x="63.623047"/>
       <use xlink:href="#DejaVuSans-30" x="127.246094"/>
      </g>
     </g>
    </g>
    <g id="xtick_19">
     <g id="line2d_34">
      <g>
       <use xlink:href="#ma310e02a59" x="794.253194" y="174.04" style="stroke: #000000; stroke-width: 0.8"/>
      </g>
     </g>
     <g id="text_30">
      <!-- 300 -->
      <g transform="translate(784.709444 188.638438) scale(0.1 -0.1)">
       <use xlink:href="#DejaVuSans-33"/>
       <use xlink:href="#DejaVuSans-30" x="63.623047"/>
       <use xlink:href="#DejaVuSans-30" x="127.246094"/>
      </g>
     </g>
    </g>
    <g id="xtick_20">
     <g id="line2d_35">
      <g>
       <use xlink:href="#ma310e02a59" x="837.160179" y="174.04" style="stroke: #000000; stroke-width: 0.8"/>
      </g>
     </g>
     <g id="text_31">
      <!-- 400 -->
      <g transform="translate(827.616429 188.638438) scale(0.1 -0.1)">
       <use xlink:href="#DejaVuSans-34"/>
       <use xlink:href="#DejaVuSans-30" x="63.623047"/>
       <use xlink:href="#DejaVuSans-30" x="127.246094"/>
      </g>
     </g>
    </g>
    <g id="text_32">
     <!-- frame -->
     <g transform="translate(736.519646 202.316563) scale(0.1 -0.1)">
      <use xlink:href="#DejaVuSans-66"/>
      <use xlink:href="#DejaVuSans-72" x="35.205078"/>
      <use xlink:href="#DejaVuSans-61" x="76.318359"/>
      <use xlink:href="#DejaVuSans-6d" x="137.597656"/>
      <use xlink:href="#DejaVuSans-65" x="235.009766"/>
     </g>
    </g>
   </g>
   <g id="matplotlib.axis_8">
    <g id="ytick_13">
     <g id="line2d_36">
      <g>
       <use xlink:href="#m8761d5d66d" x="656.95084" y="165.31335" style="stroke: #000000; stroke-width: 0.8"/>
      </g>
     </g>
    </g>
    <g id="ytick_14">
     <g id="line2d_37">
      <g>
       <use xlink:href="#m8761d5d66d" x="656.95084" y="127.555232" style="stroke: #000000; stroke-width: 0.8"/>
      </g>
     </g>
    </g>
    <g id="ytick_15">
     <g id="line2d_38">
      <g>
       <use xlink:href="#m8761d5d66d" x="656.95084" y="89.797114" style="stroke: #000000; stroke-width: 0.8"/>
      </g>
     </g>
    </g>
    <g id="ytick_16">
     <g id="line2d_39">
      <g>
       <use xlink:href="#m8761d5d66d" x="656.95084" y="52.038996" style="stroke: #000000; stroke-width: 0.8"/>
      </g>
     </g>
    </g>
   </g>
   <g id="line2d_40">
    <path d="M 665.532237 160.313932 
L 665.961307 160.39906 
L 666.390377 160.505667 
L 666.819447 160.610661 
L 667.248517 160.714068 
L 667.677587 160.814125 
L 668.106657 160.914456 
L 668.535726 161.01327 
L 668.964796 161.11059 
L 669.393866 161.206439 
L 669.822936 161.300839 
L 670.252006 161.393811 
L 670.681076 161.485378 
L 671.110146 161.57556 
L 671.539215 161.664379 
L 671.968285 161.751856 
L 672.397355 161.838009 
L 672.826425 161.92286 
L 673.255495 162.006428 
L 673.684565 162.088733 
L 674.113635 162.169794 
L 674.542704 162.249628 
L 674.971774 162.328256 
L 675.400844 162.405695 
L 675.829914 162.481964 
L 676.258984 162.557079 
L 676.688054 162.631059 
L 677.117123 162.70392 
L 677.546193 162.775679 
L 677.975263 162.846354 
L 678.404333 162.91596 
L 678.833403 162.984513 
L 679.262473 163.052031 
L 679.691543 163.118527 
L 680.120612 163.184018 
L 680.549682 163.248519 
L 680.978752 163.312045 
L 681.407822 163.37461 
L 681.836892 163.43623 
L 682.265962 166.134633 
" clip-path="url(#pa21ea26f2f)" style="fill: none; stroke: #000000; stroke-width: 2.5; stroke-linecap: square"/>
   </g>
   <g id="patch_12">
    <path d="M 656.95084 174.04 
L 656.95084 24.72 
" style="fill: none; stroke: #000000; stroke-width: 0.8; stroke-linejoin: miter; stroke-linecap: square"/>
   </g>
   <g id="patch_13">
    <path d="M 656.95084 174.04 
L 845.741576 174.04 
" style="fill: none; stroke: #000000; stroke-width: 0.8; stroke-linejoin: miter; stroke-linecap: square"/>
   </g>
   <g id="text_33">
    <!-- evt = shock -->
    <g transform="translate(721.504802 18.72) scale(0.1 -0.1)">
     <defs>
      <path id="DejaVuSans-68" d="M 3513 2113 
L 3513 0 
L 2938 0 
L 2938 2094 
Q 2938 2591 2744 2837 
Q 2550 3084 2163 3084 
Q 1697 3084 1428 2787 
Q 1159 2491 1159 1978 
L 1159 0 
L 581 0 
L 581 4863 
L 1159 4863 
L 1159 2956 
Q 1366 3272 1645 3428 
Q 1925 3584 2291 3584 
Q 2894 3584 3203 3211 
Q 3513 2838 3513 2113 
z
" transform="scale(0.015625)"/>
      <path id="DejaVuSans-6b" d="M 581 4863 
L 1159 4863 
L 1159 1991 
L 2875 3500 
L 3609 3500 
L 1753 1863 
L 3688 0 
L 2938 0 
L 1159 1709 
L 1159 0 
L 581 0 
L 581 4863 
z
" transform="scale(0.015625)"/>
     </defs>
     <use xlink:href="#DejaVuSans-65"/>
     <use xlink:href="#DejaVuSans-76" x="61.523438"/>
     <use xlink:href="#DejaVuSans-74" x="120.703125"/>
     <use xlink:href="#DejaVuSans-20" x="159.912109"/>
     <use xlink:href="#DejaVuSans-3d" x="191.699219"/>
     <use xlink:href="#DejaVuSans-20" x="275.488281"/>
     <use xlink:href="#DejaVuSans-73" x="307.275391"/>
     <use xlink:href="#DejaVuSans-68" x="359.375"/>
     <use xlink:href="#DejaVuSans-6f" x="422.753906"/>
     <use xlink:href="#DejaVuSans-63" x="483.935547"/>
     <use xlink:href="#DejaVuSans-6b" x="538.916016"/>
    </g>
   </g>
  </g>
  <g id="axes_5">
   <g id="patch_14">
    <path d="M 860.986525 174.04 
L 1049.777261 174.04 
L 1049.777261 24.72 
L 860.986525 24.72 
z
" style="fill: #ffffff"/>
   </g>
   <g id="PolyCollection_5"/>
   <g id="matplotlib.axis_9">
    <g id="xtick_21">
     <g id="line2d_41">
      <g>
       <use xlink:href="#ma310e02a59" x="869.567922" y="174.04" style="stroke: #000000; stroke-width: 0.8"/>
      </g>
     </g>
     <g id="text_34">
      <!-- 0 -->
      <g transform="translate(866.386672 188.638438) scale(0.1 -0.1)">
       <use xlink:href="#DejaVuSans-30"/>
      </g>
     </g>
    </g>
    <g id="xtick_22">
     <g id="line2d_42">
      <g>
       <use xlink:href="#ma310e02a59" x="912.474908" y="174.04" style="stroke: #000000; stroke-width: 0.8"/>
      </g>
     </g>
     <g id="text_35">
      <!-- 100 -->
      <g transform="translate(902.931158 188.638438) scale(0.1 -0.1)">
       <use xlink:href="#DejaVuSans-31"/>
       <use xlink:href="#DejaVuSans-30" x="63.623047"/>
       <use xlink:href="#DejaVuSans-30" x="127.246094"/>
      </g>
     </g>
    </g>
    <g id="xtick_23">
     <g id="line2d_43">
      <g>
       <use xlink:href="#ma310e02a59" x="955.381893" y="174.04" style="stroke: #000000; stroke-width: 0.8"/>
      </g>
     </g>
     <g id="text_36">
      <!-- 200 -->
      <g transform="translate(945.838143 188.638438) scale(0.1 -0.1)">
       <use xlink:href="#DejaVuSans-32"/>
       <use xlink:href="#DejaVuSans-30" x="63.623047"/>
       <use xlink:href="#DejaVuSans-30" x="127.246094"/>
      </g>
     </g>
    </g>
    <g id="xtick_24">
     <g id="line2d_44">
      <g>
       <use xlink:href="#ma310e02a59" x="998.288878" y="174.04" style="stroke: #000000; stroke-width: 0.8"/>
      </g>
     </g>
     <g id="text_37">
      <!-- 300 -->
      <g transform="translate(988.745128 188.638438) scale(0.1 -0.1)">
       <use xlink:href="#DejaVuSans-33"/>
       <use xlink:href="#DejaVuSans-30" x="63.623047"/>
       <use xlink:href="#DejaVuSans-30" x="127.246094"/>
      </g>
     </g>
    </g>
    <g id="xtick_25">
     <g id="line2d_45">
      <g>
       <use xlink:href="#ma310e02a59" x="1041.195864" y="174.04" style="stroke: #000000; stroke-width: 0.8"/>
      </g>
     </g>
     <g id="text_38">
      <!-- 400 -->
      <g transform="translate(1031.652114 188.638438) scale(0.1 -0.1)">
       <use xlink:href="#DejaVuSans-34"/>
       <use xlink:href="#DejaVuSans-30" x="63.623047"/>
       <use xlink:href="#DejaVuSans-30" x="127.246094"/>
      </g>
     </g>
    </g>
    <g id="text_39">
     <!-- frame -->
     <g transform="translate(940.555331 202.316563) scale(0.1 -0.1)">
      <use xlink:href="#DejaVuSans-66"/>
      <use xlink:href="#DejaVuSans-72" x="35.205078"/>
      <use xlink:href="#DejaVuSans-61" x="76.318359"/>
      <use xlink:href="#DejaVuSans-6d" x="137.597656"/>
      <use xlink:href="#DejaVuSans-65" x="235.009766"/>
     </g>
    </g>
   </g>
   <g id="matplotlib.axis_10">
    <g id="ytick_17">
     <g id="line2d_46">
      <g>
       <use xlink:href="#m8761d5d66d" x="860.986525" y="165.31335" style="stroke: #000000; stroke-width: 0.8"/>
      </g>
     </g>
    </g>
    <g id="ytick_18">
     <g id="line2d_47">
      <g>
       <use xlink:href="#m8761d5d66d" x="860.986525" y="127.555232" style="stroke: #000000; stroke-width: 0.8"/>
      </g>
     </g>
    </g>
    <g id="ytick_19">
     <g id="line2d_48">
      <g>
       <use xlink:href="#m8761d5d66d" x="860.986525" y="89.797114" style="stroke: #000000; stroke-width: 0.8"/>
      </g>
     </g>
    </g>
    <g id="ytick_20">
     <g id="line2d_49">
      <g>
       <use xlink:href="#m8761d5d66d" x="860.986525" y="52.038996" style="stroke: #000000; stroke-width: 0.8"/>
      </g>
     </g>
    </g>
   </g>
   <g id="line2d_50">
    <path d="M 869.567922 163.575137 
L 876.00397 164.362038 
L 883.298158 164.860876 
L 885.014437 164.580359 
L 887.159786 163.984209 
L 889.305135 163.314348 
L 891.450485 163.588933 
L 898.744672 164.469954 
L 906.897 165.218988 
L 916.336536 165.853821 
L 927.492352 166.375763 
L 941.222588 166.786196 
L 953.236544 166.962799 
L 963.10515 166.759899 
L 964.82143 166.73327 
L 976.406316 166.947655 
L 981.555154 166.381094 
L 985.845853 165.69502 
L 996.572599 166.248423 
L 1008.157485 166.628969 
L 1019.313301 166.859361 
L 1024.03307 166.693572 
L 1040.766794 167.007391 
L 1041.195864 166.478348 
L 1041.195864 166.478348 
" clip-path="url(#p20728789f8)" style="fill: none; stroke: #000000; stroke-width: 2.5; stroke-linecap: square"/>
   </g>
   <g id="patch_15">
    <path d="M 860.986525 174.04 
L 860.986525 24.72 
" style="fill: none; stroke: #000000; stroke-width: 0.8; stroke-linejoin: miter; stroke-linecap: square"/>
   </g>
   <g id="patch_16">
    <path d="M 860.986525 174.04 
L 1049.777261 174.04 
" style="fill: none; stroke: #000000; stroke-width: 0.8; stroke-linejoin: miter; stroke-linecap: square"/>
   </g>
   <g id="text_40">
    <!-- evt = post-shock-1 -->
    <g transform="translate(907.952987 18.72) scale(0.1 -0.1)">
     <defs>
      <path id="DejaVuSans-70" d="M 1159 525 
L 1159 -1331 
L 581 -1331 
L 581 3500 
L 1159 3500 
L 1159 2969 
Q 1341 3281 1617 3432 
Q 1894 3584 2278 3584 
Q 2916 3584 3314 3078 
Q 3713 2572 3713 1747 
Q 3713 922 3314 415 
Q 2916 -91 2278 -91 
Q 1894 -91 1617 61 
Q 1341 213 1159 525 
z
M 3116 1747 
Q 3116 2381 2855 2742 
Q 2594 3103 2138 3103 
Q 1681 3103 1420 2742 
Q 1159 2381 1159 1747 
Q 1159 1113 1420 752 
Q 1681 391 2138 391 
Q 2594 391 2855 752 
Q 3116 1113 3116 1747 
z
" transform="scale(0.015625)"/>
      <path id="DejaVuSans-2d" d="M 313 2009 
L 1997 2009 
L 1997 1497 
L 313 1497 
L 313 2009 
z
" transform="scale(0.015625)"/>
     </defs>
     <use xlink:href="#DejaVuSans-65"/>
     <use xlink:href="#DejaVuSans-76" x="61.523438"/>
     <use xlink:href="#DejaVuSans-74" x="120.703125"/>
     <use xlink:href="#DejaVuSans-20" x="159.912109"/>
     <use xlink:href="#DejaVuSans-3d" x="191.699219"/>
     <use xlink:href="#DejaVuSans-20" x="275.488281"/>
     <use xlink:href="#DejaVuSans-70" x="307.275391"/>
     <use xlink:href="#DejaVuSans-6f" x="370.751953"/>
     <use xlink:href="#DejaVuSans-73" x="431.933594"/>
     <use xlink:href="#DejaVuSans-74" x="484.033203"/>
     <use xlink:href="#DejaVuSans-2d" x="523.242188"/>
     <use xlink:href="#DejaVuSans-73" x="559.326172"/>
     <use xlink:href="#DejaVuSans-68" x="611.425781"/>
     <use xlink:href="#DejaVuSans-6f" x="674.804688"/>
     <use xlink:href="#DejaVuSans-63" x="735.986328"/>
     <use xlink:href="#DejaVuSans-6b" x="790.966797"/>
     <use xlink:href="#DejaVuSans-2d" x="848.876953"/>
     <use xlink:href="#DejaVuSans-31" x="884.960938"/>
    </g>
   </g>
  </g>
  <g id="axes_6">
   <g id="patch_17">
    <path d="M 1065.02221 174.04 
L 1253.812946 174.04 
L 1253.812946 24.72 
L 1065.02221 24.72 
z
" style="fill: #ffffff"/>
   </g>
   <g id="PolyCollection_6"/>
   <g id="matplotlib.axis_11">
    <g id="xtick_26">
     <g id="line2d_51">
      <g>
       <use xlink:href="#ma310e02a59" x="1073.603607" y="174.04" style="stroke: #000000; stroke-width: 0.8"/>
      </g>
     </g>
     <g id="text_41">
      <!-- 0 -->
      <g transform="translate(1070.422357 188.638438) scale(0.1 -0.1)">
       <use xlink:href="#DejaVuSans-30"/>
      </g>
     </g>
    </g>
    <g id="xtick_27">
     <g id="line2d_52">
      <g>
       <use xlink:href="#ma310e02a59" x="1116.510592" y="174.04" style="stroke: #000000; stroke-width: 0.8"/>
      </g>
     </g>
     <g id="text_42">
      <!-- 100 -->
      <g transform="translate(1106.966842 188.638438) scale(0.1 -0.1)">
       <use xlink:href="#DejaVuSans-31"/>
       <use xlink:href="#DejaVuSans-30" x="63.623047"/>
       <use xlink:href="#DejaVuSans-30" x="127.246094"/>
      </g>
     </g>
    </g>
    <g id="xtick_28">
     <g id="line2d_53">
      <g>
       <use xlink:href="#ma310e02a59" x="1159.417578" y="174.04" style="stroke: #000000; stroke-width: 0.8"/>
      </g>
     </g>
     <g id="text_43">
      <!-- 200 -->
      <g transform="translate(1149.873828 188.638438) scale(0.1 -0.1)">
       <use xlink:href="#DejaVuSans-32"/>
       <use xlink:href="#DejaVuSans-30" x="63.623047"/>
       <use xlink:href="#DejaVuSans-30" x="127.246094"/>
      </g>
     </g>
    </g>
    <g id="xtick_29">
     <g id="line2d_54">
      <g>
       <use xlink:href="#ma310e02a59" x="1202.324563" y="174.04" style="stroke: #000000; stroke-width: 0.8"/>
      </g>
     </g>
     <g id="text_44">
      <!-- 300 -->
      <g transform="translate(1192.780813 188.638438) scale(0.1 -0.1)">
       <use xlink:href="#DejaVuSans-33"/>
       <use xlink:href="#DejaVuSans-30" x="63.623047"/>
       <use xlink:href="#DejaVuSans-30" x="127.246094"/>
      </g>
     </g>
    </g>
    <g id="xtick_30">
     <g id="line2d_55">
      <g>
       <use xlink:href="#ma310e02a59" x="1245.231549" y="174.04" style="stroke: #000000; stroke-width: 0.8"/>
      </g>
     </g>
     <g id="text_45">
      <!-- 400 -->
      <g transform="translate(1235.687799 188.638438) scale(0.1 -0.1)">
       <use xlink:href="#DejaVuSans-34"/>
       <use xlink:href="#DejaVuSans-30" x="63.623047"/>
       <use xlink:href="#DejaVuSans-30" x="127.246094"/>
      </g>
     </g>
    </g>
    <g id="text_46">
     <!-- frame -->
     <g transform="translate(1144.591015 202.316563) scale(0.1 -0.1)">
      <use xlink:href="#DejaVuSans-66"/>
      <use xlink:href="#DejaVuSans-72" x="35.205078"/>
      <use xlink:href="#DejaVuSans-61" x="76.318359"/>
      <use xlink:href="#DejaVuSans-6d" x="137.597656"/>
      <use xlink:href="#DejaVuSans-65" x="235.009766"/>
     </g>
    </g>
   </g>
   <g id="matplotlib.axis_12">
    <g id="ytick_21">
     <g id="line2d_56">
      <g>
       <use xlink:href="#m8761d5d66d" x="1065.02221" y="165.31335" style="stroke: #000000; stroke-width: 0.8"/>
      </g>
     </g>
    </g>
    <g id="ytick_22">
     <g id="line2d_57">
      <g>
       <use xlink:href="#m8761d5d66d" x="1065.02221" y="127.555232" style="stroke: #000000; stroke-width: 0.8"/>
      </g>
     </g>
    </g>
    <g id="ytick_23">
     <g id="line2d_58">
      <g>
       <use xlink:href="#m8761d5d66d" x="1065.02221" y="89.797114" style="stroke: #000000; stroke-width: 0.8"/>
      </g>
     </g>
    </g>
    <g id="ytick_24">
     <g id="line2d_59">
      <g>
       <use xlink:href="#m8761d5d66d" x="1065.02221" y="52.038996" style="stroke: #000000; stroke-width: 0.8"/>
      </g>
     </g>
    </g>
   </g>
   <g id="line2d_60">
    <path d="M 1073.603607 167.015367 
L 1093.34082 167.216191 
L 1100.635008 167.101599 
L 1107.929195 167.135049 
L 1110.074545 166.708948 
L 1110.932684 166.60735 
L 1119.514081 166.759672 
L 1120.372221 166.485218 
L 1122.0885 165.53561 
L 1125.521059 163.317774 
L 1126.379199 163.346604 
L 1130.240828 163.810309 
L 1144.829203 165.184593 
L 1147.832692 165.242975 
L 1152.98153 165.540419 
L 1153.83967 165.447489 
L 1154.697809 164.879252 
L 1156.843159 163.278049 
L 1159.417578 161.503329 
L 1160.275717 161.3907 
L 1161.991997 161.185793 
L 1163.708276 160.745017 
L 1167.569905 159.475622 
L 1170.573394 160.016546 
L 1175.722232 161.258534 
L 1180.012931 162.110543 
L 1180.442001 162.157701 
L 1180.87107 162.00723 
L 1181.72921 160.654912 
L 1183.01642 158.191613 
L 1186.019909 152.15032 
L 1190.310607 154.306092 
L 1190.739677 154.442631 
L 1192.026887 154.14605 
L 1193.743166 153.416851 
L 1196.746655 152.038261 
L 1197.175725 151.90474 
L 1197.604795 152.001918 
L 1198.892004 152.692062 
L 1199.321074 152.316635 
L 1200.179214 150.388575 
L 1201.895493 145.781627 
L 1203.182703 142.08511 
L 1204.469912 137.960474 
L 1205.328052 136.565751 
L 1205.757122 136.103757 
L 1206.186192 136.184011 
L 1209.189681 139.34662 
L 1212.19317 142.186017 
L 1215.625729 145.072591 
L 1219.058287 147.640216 
L 1222.490846 149.900765 
L 1225.923405 151.914403 
L 1228.926894 153.462216 
L 1232.359453 154.988061 
L 1236.221082 156.235065 
L 1240.51178 157.819845 
L 1244.802479 159.180686 
L 1245.231549 166.283106 
L 1245.231549 166.283106 
" clip-path="url(#p2feb9fad61)" style="fill: none; stroke: #000000; stroke-width: 2.5; stroke-linecap: square"/>
   </g>
   <g id="patch_18">
    <path d="M 1065.02221 174.04 
L 1065.02221 24.72 
" style="fill: none; stroke: #000000; stroke-width: 0.8; stroke-linejoin: miter; stroke-linecap: square"/>
   </g>
   <g id="patch_19">
    <path d="M 1065.02221 174.04 
L 1253.812946 174.04 
" style="fill: none; stroke: #000000; stroke-width: 0.8; stroke-linejoin: miter; stroke-linecap: square"/>
   </g>
   <g id="text_47">
    <!-- evt = post-shock-2 -->
    <g transform="translate(1111.988672 18.72) scale(0.1 -0.1)">
     <use xlink:href="#DejaVuSans-65"/>
     <use xlink:href="#DejaVuSans-76" x="61.523438"/>
     <use xlink:href="#DejaVuSans-74" x="120.703125"/>
     <use xlink:href="#DejaVuSans-20" x="159.912109"/>
     <use xlink:href="#DejaVuSans-3d" x="191.699219"/>
     <use xlink:href="#DejaVuSans-20" x="275.488281"/>
     <use xlink:href="#DejaVuSans-70" x="307.275391"/>
     <use xlink:href="#DejaVuSans-6f" x="370.751953"/>
     <use xlink:href="#DejaVuSans-73" x="431.933594"/>
     <use xlink:href="#DejaVuSans-74" x="484.033203"/>
     <use xlink:href="#DejaVuSans-2d" x="523.242188"/>
     <use xlink:href="#DejaVuSans-73" x="559.326172"/>
     <use xlink:href="#DejaVuSans-68" x="611.425781"/>
     <use xlink:href="#DejaVuSans-6f" x="674.804688"/>
     <use xlink:href="#DejaVuSans-63" x="735.986328"/>
     <use xlink:href="#DejaVuSans-6b" x="790.966797"/>
     <use xlink:href="#DejaVuSans-2d" x="848.876953"/>
     <use xlink:href="#DejaVuSans-32" x="884.960938"/>
    </g>
   </g>
  </g>
  <g id="axes_7">
   <g id="patch_20">
    <path d="M 1269.057895 174.04 
L 1457.84863 174.04 
L 1457.84863 24.72 
L 1269.057895 24.72 
z
" style="fill: #ffffff"/>
   </g>
   <g id="PolyCollection_7"/>
   <g id="matplotlib.axis_13">
    <g id="xtick_31">
     <g id="line2d_61">
      <g>
       <use xlink:href="#ma310e02a59" x="1277.639292" y="174.04" style="stroke: #000000; stroke-width: 0.8"/>
      </g>
     </g>
     <g id="text_48">
      <!-- 0 -->
      <g transform="translate(1274.458042 188.638438) scale(0.1 -0.1)">
       <use xlink:href="#DejaVuSans-30"/>
      </g>
     </g>
    </g>
    <g id="xtick_32">
     <g id="line2d_62">
      <g>
       <use xlink:href="#ma310e02a59" x="1320.546277" y="174.04" style="stroke: #000000; stroke-width: 0.8"/>
      </g>
     </g>
     <g id="text_49">
      <!-- 100 -->
      <g transform="translate(1311.002527 188.638438) scale(0.1 -0.1)">
       <use xlink:href="#DejaVuSans-31"/>
       <use xlink:href="#DejaVuSans-30" x="63.623047"/>
       <use xlink:href="#DejaVuSans-30" x="127.246094"/>
      </g>
     </g>
    </g>
    <g id="xtick_33">
     <g id="line2d_63">
      <g>
       <use xlink:href="#ma310e02a59" x="1363.453263" y="174.04" style="stroke: #000000; stroke-width: 0.8"/>
      </g>
     </g>
     <g id="text_50">
      <!-- 200 -->
      <g transform="translate(1353.909513 188.638438) scale(0.1 -0.1)">
       <use xlink:href="#DejaVuSans-32"/>
       <use xlink:href="#DejaVuSans-30" x="63.623047"/>
       <use xlink:href="#DejaVuSans-30" x="127.246094"/>
      </g>
     </g>
    </g>
    <g id="xtick_34">
     <g id="line2d_64">
      <g>
       <use xlink:href="#ma310e02a59" x="1406.360248" y="174.04" style="stroke: #000000; stroke-width: 0.8"/>
      </g>
     </g>
     <g id="text_51">
      <!-- 300 -->
      <g transform="translate(1396.816498 188.638438) scale(0.1 -0.1)">
       <use xlink:href="#DejaVuSans-33"/>
       <use xlink:href="#DejaVuSans-30" x="63.623047"/>
       <use xlink:href="#DejaVuSans-30" x="127.246094"/>
      </g>
     </g>
    </g>
    <g id="xtick_35">
     <g id="line2d_65">
      <g>
       <use xlink:href="#ma310e02a59" x="1449.267233" y="174.04" style="stroke: #000000; stroke-width: 0.8"/>
      </g>
     </g>
     <g id="text_52">
      <!-- 400 -->
      <g transform="translate(1439.723483 188.638438) scale(0.1 -0.1)">
       <use xlink:href="#DejaVuSans-34"/>
       <use xlink:href="#DejaVuSans-30" x="63.623047"/>
       <use xlink:href="#DejaVuSans-30" x="127.246094"/>
      </g>
     </g>
    </g>
    <g id="text_53">
     <!-- frame -->
     <g transform="translate(1348.6267 202.316563) scale(0.1 -0.1)">
      <use xlink:href="#DejaVuSans-66"/>
      <use xlink:href="#DejaVuSans-72" x="35.205078"/>
      <use xlink:href="#DejaVuSans-61" x="76.318359"/>
      <use xlink:href="#DejaVuSans-6d" x="137.597656"/>
      <use xlink:href="#DejaVuSans-65" x="235.009766"/>
     </g>
    </g>
   </g>
   <g id="matplotlib.axis_14">
    <g id="ytick_25">
     <g id="line2d_66">
      <g>
       <use xlink:href="#m8761d5d66d" x="1269.057895" y="165.31335" style="stroke: #000000; stroke-width: 0.8"/>
      </g>
     </g>
    </g>
    <g id="ytick_26">
     <g id="line2d_67">
      <g>
       <use xlink:href="#m8761d5d66d" x="1269.057895" y="127.555232" style="stroke: #000000; stroke-width: 0.8"/>
      </g>
     </g>
    </g>
    <g id="ytick_27">
     <g id="line2d_68">
      <g>
       <use xlink:href="#m8761d5d66d" x="1269.057895" y="89.797114" style="stroke: #000000; stroke-width: 0.8"/>
      </g>
     </g>
    </g>
    <g id="ytick_28">
     <g id="line2d_69">
      <g>
       <use xlink:href="#m8761d5d66d" x="1269.057895" y="52.038996" style="stroke: #000000; stroke-width: 0.8"/>
      </g>
     </g>
    </g>
   </g>
   <g id="line2d_70">
    <path d="M 1277.639292 159.311475 
L 1280.213711 159.963516 
L 1283.2172 160.374883 
L 1286.220689 160.802756 
L 1287.507898 161.018523 
L 1288.366038 160.928832 
L 1291.369527 161.041953 
L 1296.089295 161.998459 
L 1303.812553 163.274842 
L 1305.528832 163.406327 
L 1312.39395 164.281097 
L 1312.82302 164.329011 
L 1313.25209 163.93051 
L 1314.539299 161.895318 
L 1317.542788 156.685161 
L 1317.971858 156.679798 
L 1322.262557 158.201735 
L 1328.269535 159.948062 
L 1330.843954 160.518214 
L 1333.847443 161.184411 
L 1335.134652 161.464334 
L 1335.563722 161.060803 
L 1338.567211 161.642993 
L 1343.286979 162.143539 
L 1347.577678 162.360579 
L 1353.584656 163.338159 
L 1354.013726 163.400329 
L 1354.442796 163.297424 
L 1355.300935 162.399083 
L 1360.878843 163.300089 
L 1361.736983 163.32259 
L 1363.453263 163.27536 
L 1363.882332 162.759749 
L 1365.598612 158.183087 
L 1366.885821 154.574396 
L 1367.314891 154.407217 
L 1368.602101 154.808769 
L 1369.031171 154.801472 
L 1369.460241 154.468445 
L 1370.74745 154.973269 
L 1372.46373 155.668993 
L 1374.180009 156.019269 
L 1375.896288 156.116371 
L 1378.470707 156.193927 
L 1382.761406 157.78452 
L 1383.190476 157.585568 
L 1384.477685 153.585515 
L 1384.906755 153.282681 
L 1388.768384 155.097898 
L 1392.630013 156.68054 
L 1393.917222 157.062687 
L 1394.775362 157.273655 
L 1397.778851 158.303029 
L 1398.207921 156.50225 
L 1399.06606 149.212552 
L 1400.35327 136.243808 
L 1403.356759 104.506007 
L 1403.785829 100.65435 
L 1404.214899 98.818743 
L 1410.221877 111.787102 
L 1412.796296 116.649428 
L 1415.370715 121.078157 
L 1417.945134 125.092365 
L 1420.948623 129.373729 
L 1423.093972 132.166365 
L 1423.523042 132.635846 
L 1423.952112 131.209287 
L 1425.239322 116.945988 
L 1429.10095 71.205482 
L 1429.95909 63.509283 
L 1430.38816 61.060407 
L 1432.533509 68.493013 
L 1432.962579 69.892016 
L 1433.391649 70.632368 
L 1434.249788 71.318981 
L 1435.107928 71.572971 
L 1435.966068 71.525843 
L 1438.111417 71.158283 
L 1438.540487 71.173943 
L 1441.114906 79.03884 
L 1445.405605 91.191105 
L 1447.980024 97.852546 
L 1448.838164 99.94111 
L 1449.267233 31.507273 
L 1449.267233 31.507273 
" clip-path="url(#pe25698aec0)" style="fill: none; stroke: #000000; stroke-width: 2.5; stroke-linecap: square"/>
   </g>
   <g id="patch_21">
    <path d="M 1269.057895 174.04 
L 1269.057895 24.72 
" style="fill: none; stroke: #000000; stroke-width: 0.8; stroke-linejoin: miter; stroke-linecap: square"/>
   </g>
   <g id="patch_22">
    <path d="M 1269.057895 174.04 
L 1457.84863 174.04 
" style="fill: none; stroke: #000000; stroke-width: 0.8; stroke-linejoin: miter; stroke-linecap: square"/>
   </g>
   <g id="text_54">
    <!-- evt = post-shock-3 -->
    <g transform="translate(1316.024356 18.72) scale(0.1 -0.1)">
     <use xlink:href="#DejaVuSans-65"/>
     <use xlink:href="#DejaVuSans-76" x="61.523438"/>
     <use xlink:href="#DejaVuSans-74" x="120.703125"/>
     <use xlink:href="#DejaVuSans-20" x="159.912109"/>
     <use xlink:href="#DejaVuSans-3d" x="191.699219"/>
     <use xlink:href="#DejaVuSans-20" x="275.488281"/>
     <use xlink:href="#DejaVuSans-70" x="307.275391"/>
     <use xlink:href="#DejaVuSans-6f" x="370.751953"/>
     <use xlink:href="#DejaVuSans-73" x="431.933594"/>
     <use xlink:href="#DejaVuSans-74" x="484.033203"/>
     <use xlink:href="#DejaVuSans-2d" x="523.242188"/>
     <use xlink:href="#DejaVuSans-73" x="559.326172"/>
     <use xlink:href="#DejaVuSans-68" x="611.425781"/>
     <use xlink:href="#DejaVuSans-6f" x="674.804688"/>
     <use xlink:href="#DejaVuSans-63" x="735.986328"/>
     <use xlink:href="#DejaVuSans-6b" x="790.966797"/>
     <use xlink:href="#DejaVuSans-2d" x="848.876953"/>
     <use xlink:href="#DejaVuSans-33" x="884.960938"/>
    </g>
   </g>
  </g>
  <g id="axes_8">
   <g id="patch_23">
    <path d="M 1473.093579 174.04 
L 1661.884315 174.04 
L 1661.884315 24.72 
L 1473.093579 24.72 
z
" style="fill: #ffffff"/>
   </g>
   <g id="PolyCollection_8"/>
   <g id="matplotlib.axis_15">
    <g id="xtick_36">
     <g id="line2d_71">
      <g>
       <use xlink:href="#ma310e02a59" x="1481.674977" y="174.04" style="stroke: #000000; stroke-width: 0.8"/>
      </g>
     </g>
     <g id="text_55">
      <!-- 0 -->
      <g transform="translate(1478.493727 188.638438) scale(0.1 -0.1)">
       <use xlink:href="#DejaVuSans-30"/>
      </g>
     </g>
    </g>
    <g id="xtick_37">
     <g id="line2d_72">
      <g>
       <use xlink:href="#ma310e02a59" x="1524.581962" y="174.04" style="stroke: #000000; stroke-width: 0.8"/>
      </g>
     </g>
     <g id="text_56">
      <!-- 100 -->
      <g transform="translate(1515.038212 188.638438) scale(0.1 -0.1)">
       <use xlink:href="#DejaVuSans-31"/>
       <use xlink:href="#DejaVuSans-30" x="63.623047"/>
       <use xlink:href="#DejaVuSans-30" x="127.246094"/>
      </g>
     </g>
    </g>
    <g id="xtick_38">
     <g id="line2d_73">
      <g>
       <use xlink:href="#ma310e02a59" x="1567.488947" y="174.04" style="stroke: #000000; stroke-width: 0.8"/>
      </g>
     </g>
     <g id="text_57">
      <!-- 200 -->
      <g transform="translate(1557.945197 188.638438) scale(0.1 -0.1)">
       <use xlink:href="#DejaVuSans-32"/>
       <use xlink:href="#DejaVuSans-30" x="63.623047"/>
       <use xlink:href="#DejaVuSans-30" x="127.246094"/>
      </g>
     </g>
    </g>
    <g id="xtick_39">
     <g id="line2d_74">
      <g>
       <use xlink:href="#ma310e02a59" x="1610.395933" y="174.04" style="stroke: #000000; stroke-width: 0.8"/>
      </g>
     </g>
     <g id="text_58">
      <!-- 300 -->
      <g transform="translate(1600.852183 188.638438) scale(0.1 -0.1)">
       <use xlink:href="#DejaVuSans-33"/>
       <use xlink:href="#DejaVuSans-30" x="63.623047"/>
       <use xlink:href="#DejaVuSans-30" x="127.246094"/>
      </g>
     </g>
    </g>
    <g id="xtick_40">
     <g id="line2d_75">
      <g>
       <use xlink:href="#ma310e02a59" x="1653.302918" y="174.04" style="stroke: #000000; stroke-width: 0.8"/>
      </g>
     </g>
     <g id="text_59">
      <!-- 400 -->
      <g transform="translate(1643.759168 188.638438) scale(0.1 -0.1)">
       <use xlink:href="#DejaVuSans-34"/>
       <use xlink:href="#DejaVuSans-30" x="63.623047"/>
       <use xlink:href="#DejaVuSans-30" x="127.246094"/>
      </g>
     </g>
    </g>
    <g id="text_60">
     <!-- frame -->
     <g transform="translate(1552.662385 202.316563) scale(0.1 -0.1)">
      <use xlink:href="#DejaVuSans-66"/>
      <use xlink:href="#DejaVuSans-72" x="35.205078"/>
      <use xlink:href="#DejaVuSans-61" x="76.318359"/>
      <use xlink:href="#DejaVuSans-6d" x="137.597656"/>
      <use xlink:href="#DejaVuSans-65" x="235.009766"/>
     </g>
    </g>
   </g>
   <g id="matplotlib.axis_16">
    <g id="ytick_29">
     <g id="line2d_76">
      <g>
       <use xlink:href="#m8761d5d66d" x="1473.093579" y="165.31335" style="stroke: #000000; stroke-width: 0.8"/>
      </g>
     </g>
    </g>
    <g id="ytick_30">
     <g id="line2d_77">
      <g>
       <use xlink:href="#m8761d5d66d" x="1473.093579" y="127.555232" style="stroke: #000000; stroke-width: 0.8"/>
      </g>
     </g>
    </g>
    <g id="ytick_31">
     <g id="line2d_78">
      <g>
       <use xlink:href="#m8761d5d66d" x="1473.093579" y="89.797114" style="stroke: #000000; stroke-width: 0.8"/>
      </g>
     </g>
    </g>
    <g id="ytick_32">
     <g id="line2d_79">
      <g>
       <use xlink:href="#m8761d5d66d" x="1473.093579" y="52.038996" style="stroke: #000000; stroke-width: 0.8"/>
      </g>
     </g>
    </g>
   </g>
   <g id="line2d_80">
    <path d="M 1481.674977 101.786551 
L 1484.249396 107.496694 
L 1486.394745 111.681171 
L 1486.823815 111.59378 
L 1488.111024 109.863081 
L 1489.398234 107.931583 
L 1490.256374 102.813301 
L 1491.114513 97.63829 
L 1491.972653 97.34865 
L 1492.401723 97.42529 
L 1494.118002 101.385217 
L 1499.69591 112.829534 
L 1502.27033 117.440168 
L 1505.273819 122.060048 
L 1507.419168 125.389089 
L 1507.848238 125.271526 
L 1508.706377 123.328295 
L 1509.564517 120.723646 
L 1510.851727 115.850555 
L 1513.855216 103.627342 
L 1516.429635 109.202445 
L 1519.004054 114.290548 
L 1521.578473 118.934191 
L 1524.152892 123.1722 
L 1526.298241 126.359421 
L 1528.443591 128.964755 
L 1530.15987 130.740393 
L 1533.163359 133.811173 
L 1535.737778 136.050395 
L 1537.454058 137.461662 
L 1541.315686 140.79094 
L 1543.461036 142.042481 
L 1545.606385 143.072423 
L 1546.464525 143.397618 
L 1548.609874 144.8241 
L 1551.613363 147.088545 
L 1555.474991 149.676347 
L 1558.90755 151.715735 
L 1561.911039 153.29997 
L 1565.343598 154.331958 
L 1568.347087 155.117252 
L 1572.208716 156.697415 
L 1575.212205 157.785077 
L 1575.641275 156.995049 
L 1576.928484 152.316295 
L 1578.644764 144.998128 
L 1580.790113 135.616602 
L 1582.077322 130.950139 
L 1582.506392 131.201382 
L 1584.651742 133.801905 
L 1586.797091 135.925993 
L 1588.51337 137.60348 
L 1592.374999 141.417172 
L 1595.378488 144.041556 
L 1597.523837 145.717756 
L 1600.098256 146.869829 
L 1601.385466 147.46905 
L 1601.814536 147.203994 
L 1603.959885 140.52683 
L 1604.388955 140.165072 
L 1607.392444 142.924994 
L 1610.395933 145.405747 
L 1611.683142 146.296217 
L 1615.544771 148.62826 
L 1618.97733 150.787906 
L 1622.409889 152.699753 
L 1622.838959 152.911544 
L 1623.268028 152.853069 
L 1626.700587 154.524382 
L 1635.281984 157.68289 
L 1640.001753 159.189888 
L 1644.721521 160.460753 
L 1648.15408 161.196213 
L 1651.586639 161.909519 
L 1652.015709 161.854603 
L 1652.444778 161.629637 
L 1652.873848 161.582248 
L 1653.302918 152.52675 
L 1653.302918 152.52675 
" clip-path="url(#pe4a4a63915)" style="fill: none; stroke: #000000; stroke-width: 2.5; stroke-linecap: square"/>
   </g>
   <g id="patch_24">
    <path d="M 1473.093579 174.04 
L 1473.093579 24.72 
" style="fill: none; stroke: #000000; stroke-width: 0.8; stroke-linejoin: miter; stroke-linecap: square"/>
   </g>
   <g id="patch_25">
    <path d="M 1473.093579 174.04 
L 1661.884315 174.04 
" style="fill: none; stroke: #000000; stroke-width: 0.8; stroke-linejoin: miter; stroke-linecap: square"/>
   </g>
   <g id="text_61">
    <!-- evt = post-shock-4 -->
    <g transform="translate(1520.060041 18.72) scale(0.1 -0.1)">
     <use xlink:href="#DejaVuSans-65"/>
     <use xlink:href="#DejaVuSans-76" x="61.523438"/>
     <use xlink:href="#DejaVuSans-74" x="120.703125"/>
     <use xlink:href="#DejaVuSans-20" x="159.912109"/>
     <use xlink:href="#DejaVuSans-3d" x="191.699219"/>
     <use xlink:href="#DejaVuSans-20" x="275.488281"/>
     <use xlink:href="#DejaVuSans-70" x="307.275391"/>
     <use xlink:href="#DejaVuSans-6f" x="370.751953"/>
     <use xlink:href="#DejaVuSans-73" x="431.933594"/>
     <use xlink:href="#DejaVuSans-74" x="484.033203"/>
     <use xlink:href="#DejaVuSans-2d" x="523.242188"/>
     <use xlink:href="#DejaVuSans-73" x="559.326172"/>
     <use xlink:href="#DejaVuSans-68" x="611.425781"/>
     <use xlink:href="#DejaVuSans-6f" x="674.804688"/>
     <use xlink:href="#DejaVuSans-63" x="735.986328"/>
     <use xlink:href="#DejaVuSans-6b" x="790.966797"/>
     <use xlink:href="#DejaVuSans-2d" x="848.876953"/>
     <use xlink:href="#DejaVuSans-34" x="884.960938"/>
    </g>
   </g>
  </g>
  <g id="axes_9">
   <g id="patch_26">
    <path d="M 1677.129264 174.04 
L 1865.92 174.04 
L 1865.92 24.72 
L 1677.129264 24.72 
z
" style="fill: #ffffff"/>
   </g>
   <g id="PolyCollection_9"/>
   <g id="matplotlib.axis_17">
    <g id="xtick_41">
     <g id="line2d_81">
      <g>
       <use xlink:href="#ma310e02a59" x="1685.710661" y="174.04" style="stroke: #000000; stroke-width: 0.8"/>
      </g>
     </g>
     <g id="text_62">
      <!-- 0 -->
      <g transform="translate(1682.529411 188.638438) scale(0.1 -0.1)">
       <use xlink:href="#DejaVuSans-30"/>
      </g>
     </g>
    </g>
    <g id="xtick_42">
     <g id="line2d_82">
      <g>
       <use xlink:href="#ma310e02a59" x="1728.617647" y="174.04" style="stroke: #000000; stroke-width: 0.8"/>
      </g>
     </g>
     <g id="text_63">
      <!-- 100 -->
      <g transform="translate(1719.073897 188.638438) scale(0.1 -0.1)">
       <use xlink:href="#DejaVuSans-31"/>
       <use xlink:href="#DejaVuSans-30" x="63.623047"/>
       <use xlink:href="#DejaVuSans-30" x="127.246094"/>
      </g>
     </g>
    </g>
    <g id="xtick_43">
     <g id="line2d_83">
      <g>
       <use xlink:href="#ma310e02a59" x="1771.524632" y="174.04" style="stroke: #000000; stroke-width: 0.8"/>
      </g>
     </g>
     <g id="text_64">
      <!-- 200 -->
      <g transform="translate(1761.980882 188.638438) scale(0.1 -0.1)">
       <use xlink:href="#DejaVuSans-32"/>
       <use xlink:href="#DejaVuSans-30" x="63.623047"/>
       <use xlink:href="#DejaVuSans-30" x="127.246094"/>
      </g>
     </g>
    </g>
    <g id="xtick_44">
     <g id="line2d_84">
      <g>
       <use xlink:href="#ma310e02a59" x="1814.431618" y="174.04" style="stroke: #000000; stroke-width: 0.8"/>
      </g>
     </g>
     <g id="text_65">
      <!-- 300 -->
      <g transform="translate(1804.887868 188.638438) scale(0.1 -0.1)">
       <use xlink:href="#DejaVuSans-33"/>
       <use xlink:href="#DejaVuSans-30" x="63.623047"/>
       <use xlink:href="#DejaVuSans-30" x="127.246094"/>
      </g>
     </g>
    </g>
    <g id="xtick_45">
     <g id="line2d_85">
      <g>
       <use xlink:href="#ma310e02a59" x="1857.338603" y="174.04" style="stroke: #000000; stroke-width: 0.8"/>
      </g>
     </g>
     <g id="text_66">
      <!-- 400 -->
      <g transform="translate(1847.794853 188.638438) scale(0.1 -0.1)">
       <use xlink:href="#DejaVuSans-34"/>
       <use xlink:href="#DejaVuSans-30" x="63.623047"/>
       <use xlink:href="#DejaVuSans-30" x="127.246094"/>
      </g>
     </g>
    </g>
    <g id="text_67">
     <!-- frame -->
     <g transform="translate(1756.69807 202.316563) scale(0.1 -0.1)">
      <use xlink:href="#DejaVuSans-66"/>
      <use xlink:href="#DejaVuSans-72" x="35.205078"/>
      <use xlink:href="#DejaVuSans-61" x="76.318359"/>
      <use xlink:href="#DejaVuSans-6d" x="137.597656"/>
      <use xlink:href="#DejaVuSans-65" x="235.009766"/>
     </g>
    </g>
   </g>
   <g id="matplotlib.axis_18">
    <g id="ytick_33">
     <g id="line2d_86">
      <g>
       <use xlink:href="#m8761d5d66d" x="1677.129264" y="165.31335" style="stroke: #000000; stroke-width: 0.8"/>
      </g>
     </g>
    </g>
    <g id="ytick_34">
     <g id="line2d_87">
      <g>
       <use xlink:href="#m8761d5d66d" x="1677.129264" y="127.555232" style="stroke: #000000; stroke-width: 0.8"/>
      </g>
     </g>
    </g>
    <g id="ytick_35">
     <g id="line2d_88">
      <g>
       <use xlink:href="#m8761d5d66d" x="1677.129264" y="89.797114" style="stroke: #000000; stroke-width: 0.8"/>
      </g>
     </g>
    </g>
    <g id="ytick_36">
     <g id="line2d_89">
      <g>
       <use xlink:href="#m8761d5d66d" x="1677.129264" y="52.038996" style="stroke: #000000; stroke-width: 0.8"/>
      </g>
     </g>
    </g>
   </g>
   <g id="line2d_90">
    <path d="M 1685.710661 161.735524 
L 1691.717639 162.833159 
L 1694.292058 163.179419 
L 1696.008338 163.243936 
L 1699.011827 163.455324 
L 1699.869967 163.180745 
L 1700.299036 163.003447 
L 1701.586246 163.038073 
L 1704.160665 163.302893 
L 1709.738573 164.02057 
L 1713.600202 164.299997 
L 1721.323459 165.05554 
L 1728.188577 165.524583 
L 1737.628114 166.011143 
L 1744.922301 166.088314 
L 1746.638581 165.931792 
L 1747.92579 165.759166 
L 1749.64207 165.827873 
L 1759.939746 166.312405 
L 1761.656025 166.285028 
L 1762.514165 166.140443 
L 1770.666492 166.360946 
L 1773.669981 166.118399 
L 1774.528121 165.76158 
L 1776.244401 165.018125 
L 1780.106029 164.455387 
L 1783.109518 164.732915 
L 1791.690915 165.446618 
L 1795.552544 165.608504 
L 1796.410684 165.072282 
L 1797.697893 164.203663 
L 1798.556033 164.219365 
L 1806.27929 164.993983 
L 1808.42464 165.099955 
L 1813.573478 164.877433 
L 1822.154875 165.498008 
L 1836.31418 166.113955 
L 1838.888599 165.647424 
L 1844.037437 165.498998 
L 1851.760695 165.932042 
L 1855.193254 165.632131 
L 1856.909533 165.284575 
L 1857.338603 167.252727 
L 1857.338603 167.252727 
" clip-path="url(#p46fac47bd4)" style="fill: none; stroke: #000000; stroke-width: 2.5; stroke-linecap: square"/>
   </g>
   <g id="patch_27">
    <path d="M 1677.129264 174.04 
L 1677.129264 24.72 
" style="fill: none; stroke: #000000; stroke-width: 0.8; stroke-linejoin: miter; stroke-linecap: square"/>
   </g>
   <g id="patch_28">
    <path d="M 1677.129264 174.04 
L 1865.92 174.04 
" style="fill: none; stroke: #000000; stroke-width: 0.8; stroke-linejoin: miter; stroke-linecap: square"/>
   </g>
   <g id="text_68">
    <!-- resp = tone+trace -->
    <g transform="translate(1871.775502 52.853438) rotate(-270) scale(0.1 -0.1)">
     <defs>
      <path id="DejaVuSans-2b" d="M 2944 4013 
L 2944 2272 
L 4684 2272 
L 4684 1741 
L 2944 1741 
L 2944 0 
L 2419 0 
L 2419 1741 
L 678 1741 
L 678 2272 
L 2419 2272 
L 2419 4013 
L 2944 4013 
z
" transform="scale(0.015625)"/>
     </defs>
     <use xlink:href="#DejaVuSans-72"/>
     <use xlink:href="#DejaVuSans-65" x="38.863281"/>
     <use xlink:href="#DejaVuSans-73" x="100.386719"/>
     <use xlink:href="#DejaVuSans-70" x="152.486328"/>
     <use xlink:href="#DejaVuSans-20" x="215.962891"/>
     <use xlink:href="#DejaVuSans-3d" x="247.75"/>
     <use xlink:href="#DejaVuSans-20" x="331.539062"/>
     <use xlink:href="#DejaVuSans-74" x="363.326172"/>
     <use xlink:href="#DejaVuSans-6f" x="402.535156"/>
     <use xlink:href="#DejaVuSans-6e" x="463.716797"/>
     <use xlink:href="#DejaVuSans-65" x="527.095703"/>
     <use xlink:href="#DejaVuSans-2b" x="588.619141"/>
     <use xlink:href="#DejaVuSans-74" x="672.408203"/>
     <use xlink:href="#DejaVuSans-72" x="711.617188"/>
     <use xlink:href="#DejaVuSans-61" x="752.730469"/>
     <use xlink:href="#DejaVuSans-63" x="814.009766"/>
     <use xlink:href="#DejaVuSans-65" x="868.990234"/>
    </g>
   </g>
   <g id="text_69">
    <!-- evt = post-shock-5 -->
    <g transform="translate(1724.095726 18.72) scale(0.1 -0.1)">
     <defs>
      <path id="DejaVuSans-35" d="M 691 4666 
L 3169 4666 
L 3169 4134 
L 1269 4134 
L 1269 2991 
Q 1406 3038 1543 3061 
Q 1681 3084 1819 3084 
Q 2600 3084 3056 2656 
Q 3513 2228 3513 1497 
Q 3513 744 3044 326 
Q 2575 -91 1722 -91 
Q 1428 -91 1123 -41 
Q 819 9 494 109 
L 494 744 
Q 775 591 1075 516 
Q 1375 441 1709 441 
Q 2250 441 2565 725 
Q 2881 1009 2881 1497 
Q 2881 1984 2565 2268 
Q 2250 2553 1709 2553 
Q 1456 2553 1204 2497 
Q 953 2441 691 2322 
L 691 4666 
z
" transform="scale(0.015625)"/>
     </defs>
     <use xlink:href="#DejaVuSans-65"/>
     <use xlink:href="#DejaVuSans-76" x="61.523438"/>
     <use xlink:href="#DejaVuSans-74" x="120.703125"/>
     <use xlink:href="#DejaVuSans-20" x="159.912109"/>
     <use xlink:href="#DejaVuSans-3d" x="191.699219"/>
     <use xlink:href="#DejaVuSans-20" x="275.488281"/>
     <use xlink:href="#DejaVuSans-70" x="307.275391"/>
     <use xlink:href="#DejaVuSans-6f" x="370.751953"/>
     <use xlink:href="#DejaVuSans-73" x="431.933594"/>
     <use xlink:href="#DejaVuSans-74" x="484.033203"/>
     <use xlink:href="#DejaVuSans-2d" x="523.242188"/>
     <use xlink:href="#DejaVuSans-73" x="559.326172"/>
     <use xlink:href="#DejaVuSans-68" x="611.425781"/>
     <use xlink:href="#DejaVuSans-6f" x="674.804688"/>
     <use xlink:href="#DejaVuSans-63" x="735.986328"/>
     <use xlink:href="#DejaVuSans-6b" x="790.966797"/>
     <use xlink:href="#DejaVuSans-2d" x="848.876953"/>
     <use xlink:href="#DejaVuSans-35" x="884.960938"/>
    </g>
   </g>
  </g>
  <g id="legend_1"/>
 </g>
 <defs>
  <clipPath id="p5767bf13cd">
   <rect x="44.843786" y="24.72" width="188.790736" height="149.32"/>
  </clipPath>
  <clipPath id="pb513b5b7d8">
   <rect x="248.879471" y="24.72" width="188.790736" height="149.32"/>
  </clipPath>
  <clipPath id="p4b21d9fd62">
   <rect x="452.915156" y="24.72" width="188.790736" height="149.32"/>
  </clipPath>
  <clipPath id="pa21ea26f2f">
   <rect x="656.95084" y="24.72" width="188.790736" height="149.32"/>
  </clipPath>
  <clipPath id="p20728789f8">
   <rect x="860.986525" y="24.72" width="188.790736" height="149.32"/>
  </clipPath>
  <clipPath id="p2feb9fad61">
   <rect x="1065.02221" y="24.72" width="188.790736" height="149.32"/>
  </clipPath>
  <clipPath id="pe25698aec0">
   <rect x="1269.057895" y="24.72" width="188.790736" height="149.32"/>
  </clipPath>
  <clipPath id="pe4a4a63915">
   <rect x="1473.093579" y="24.72" width="188.790736" height="149.32"/>
  </clipPath>
  <clipPath id="p46fac47bd4">
   <rect x="1677.129264" y="24.72" width="188.790736" height="149.32"/>
  </clipPath>
 </defs>
</svg>
